G04*
G04 #@! TF.GenerationSoftware,Altium Limited,Altium Designer,21.4.1 (30)*
G04*
G04 Layer_Color=128*
%FSLAX25Y25*%
%MOIN*%
G70*
G04*
G04 #@! TF.SameCoordinates,5F1AA903-488D-4DD6-8C3F-381C7BA84995*
G04*
G04*
G04 #@! TF.FilePolarity,Positive*
G04*
G01*
G75*
%ADD115C,0.00200*%
D115*
X285630Y25256D02*
X289173D01*
X287402Y23484D02*
Y27028D01*
X285902Y15256D02*
X288902D01*
X287402Y13756D02*
Y16756D01*
X21850Y68898D02*
X25394D01*
X23622Y67126D02*
Y70669D01*
X21850Y82677D02*
X25394D01*
X23622Y80905D02*
Y84449D01*
X21850Y96457D02*
X25394D01*
X23622Y94685D02*
Y98228D01*
X21850Y110236D02*
X25394D01*
X23622Y108465D02*
Y112008D01*
X328937Y70866D02*
X332480D01*
X330709Y69095D02*
Y72638D01*
X328937Y84646D02*
X332480D01*
X330709Y82874D02*
Y86417D01*
X328937Y98425D02*
X332480D01*
X330709Y96653D02*
Y100197D01*
X328937Y112205D02*
X332480D01*
X330709Y110433D02*
Y113976D01*
X326772Y177165D02*
X342520D01*
X334646Y169291D02*
Y185039D01*
X326772Y19685D02*
X342520D01*
X334646Y11811D02*
Y27559D01*
X11811Y177165D02*
X27559D01*
X19685Y169291D02*
Y185039D01*
X11811Y19685D02*
X27559D01*
X19685Y11811D02*
Y27559D01*
X208169Y68898D02*
X209154D01*
X208661Y68405D02*
Y69390D01*
X208169Y65945D02*
X209154D01*
X208661Y65453D02*
Y66437D01*
X106791Y71850D02*
X107776D01*
X107283Y71358D02*
Y72342D01*
X106791Y74803D02*
X107776D01*
X107283Y74311D02*
Y75295D01*
X106791Y77756D02*
X107776D01*
X107283Y77264D02*
Y78248D01*
X120571Y102362D02*
X121555D01*
X121063Y101870D02*
Y102854D01*
X116634Y102362D02*
X117618D01*
X117126Y101870D02*
Y102854D01*
X112697Y102362D02*
X113681D01*
X113189Y101870D02*
Y102854D01*
X129429Y98425D02*
X130413D01*
X129921Y97933D02*
Y98917D01*
X129429Y93504D02*
X130413D01*
X129921Y93012D02*
Y93996D01*
X140256Y71850D02*
X141240D01*
X140748Y71358D02*
Y72342D01*
X136319Y71850D02*
X137303D01*
X136811Y71358D02*
Y72342D01*
X148130Y27559D02*
X149114D01*
X148622Y27067D02*
Y28051D01*
X148130Y32480D02*
X149114D01*
X148622Y31988D02*
Y32972D01*
X148130Y37402D02*
X149114D01*
X148622Y36909D02*
Y37894D01*
X161909Y59055D02*
X162894D01*
X162402Y58563D02*
Y59547D01*
X128445Y43307D02*
X129429D01*
X128937Y42815D02*
Y43799D01*
X120571Y43307D02*
X121555D01*
X121063Y42815D02*
Y43799D01*
X91043Y67913D02*
X92027D01*
X91535Y67421D02*
Y68405D01*
X91043Y69882D02*
X92027D01*
X91535Y69390D02*
Y70374D01*
X56595Y94488D02*
X57579D01*
X57087Y93996D02*
Y94980D01*
X261319Y57087D02*
X262303D01*
X261811Y56595D02*
Y57579D01*
X342028Y55118D02*
X343012D01*
X342520Y54626D02*
Y55610D01*
X342028Y51181D02*
X343012D01*
X342520Y50689D02*
Y51673D01*
X342028Y47244D02*
X343012D01*
X342520Y46752D02*
Y47736D01*
X238681Y94488D02*
X239665D01*
X239173Y93996D02*
Y94980D01*
X215059Y88583D02*
X216043D01*
X215551Y88091D02*
Y89075D01*
X53642Y156496D02*
X54626D01*
X54134Y156004D02*
Y156988D01*
X53642Y159449D02*
X54626D01*
X54134Y158957D02*
Y159941D01*
X50689Y156496D02*
X51673D01*
X51181Y156004D02*
Y156988D01*
X50689Y159449D02*
X51673D01*
X51181Y158957D02*
Y159941D01*
X278051Y112205D02*
X279035D01*
X278543Y111713D02*
Y112697D01*
X278051Y114173D02*
X279035D01*
X278543Y113681D02*
Y114665D01*
X276083Y112205D02*
X277067D01*
X276575Y111713D02*
Y112697D01*
X276083Y114173D02*
X277067D01*
X276575Y113681D02*
Y114665D01*
X52658Y90551D02*
X53642D01*
X53150Y90059D02*
Y91043D01*
X56595Y86614D02*
X57579D01*
X57087Y86122D02*
Y87106D01*
X314469Y118110D02*
X315453D01*
X314961Y117618D02*
Y118602D01*
X314469Y129921D02*
X315453D01*
X314961Y129429D02*
Y130413D01*
X314469Y141732D02*
X315453D01*
X314961Y141240D02*
Y142224D01*
X314469Y153543D02*
X315453D01*
X314961Y153051D02*
Y154035D01*
X279035Y145669D02*
X280020D01*
X279528Y145177D02*
Y146161D01*
X279035Y157480D02*
X280020D01*
X279528Y156988D02*
Y157972D01*
X279035Y169291D02*
X280020D01*
X279528Y168799D02*
Y169783D01*
X223917Y185039D02*
X224902D01*
X224410Y184547D02*
Y185531D01*
X212106Y185039D02*
X213090D01*
X212598Y184547D02*
Y185531D01*
X93996Y185039D02*
X94980D01*
X94488Y184547D02*
Y185531D01*
X78248Y185039D02*
X79232D01*
X78740Y184547D02*
Y185531D01*
X58563Y185039D02*
X59547D01*
X59055Y184547D02*
Y185531D01*
X42815Y185039D02*
X43799D01*
X43307Y184547D02*
Y185531D01*
X271161Y11811D02*
X272146D01*
X271654Y11319D02*
Y12303D01*
X271161Y19685D02*
X272146D01*
X271654Y19193D02*
Y20177D01*
X160925Y7874D02*
X161909D01*
X161417Y7382D02*
Y8366D01*
X153051Y7874D02*
X154035D01*
X153543Y7382D02*
Y8366D01*
X109744Y7874D02*
X110728D01*
X110236Y7382D02*
Y8366D01*
X101870Y7874D02*
X102854D01*
X102362Y7382D02*
Y8366D01*
X66437Y7874D02*
X67421D01*
X66929Y7382D02*
Y8366D01*
X58563Y7874D02*
X59547D01*
X59055Y7382D02*
Y8366D01*
X46752Y31496D02*
X47736D01*
X47244Y31004D02*
Y31988D01*
X46752Y43307D02*
X47736D01*
X47244Y42815D02*
Y43799D01*
X38878Y43307D02*
X39862D01*
X39370Y42815D02*
Y43799D01*
X23130Y43307D02*
X24114D01*
X23622Y42815D02*
Y43799D01*
X7382Y43307D02*
X8366D01*
X7874Y42815D02*
Y43799D01*
X7382Y51181D02*
X8366D01*
X7874Y50689D02*
Y51673D01*
X7382Y74803D02*
X8366D01*
X7874Y74311D02*
Y75295D01*
X7382Y94488D02*
X8366D01*
X7874Y93996D02*
Y94980D01*
X7382Y114173D02*
X8366D01*
X7874Y113681D02*
Y114665D01*
X7382Y133858D02*
X8366D01*
X7874Y133366D02*
Y134350D01*
X7382Y153543D02*
X8366D01*
X7874Y153051D02*
Y154035D01*
X115650Y180118D02*
X116634D01*
X116142Y179626D02*
Y180610D01*
X111713Y180118D02*
X112697D01*
X112205Y179626D02*
Y180610D01*
X107776Y180118D02*
X108760D01*
X108268Y179626D02*
Y180610D01*
X85138Y159449D02*
X86122D01*
X85630Y158957D02*
Y159941D01*
X81201Y159449D02*
X82185D01*
X81693Y158957D02*
Y159941D01*
X133366Y138779D02*
X134350D01*
X133858Y138287D02*
Y139272D01*
X119587Y138779D02*
X120571D01*
X120079Y138287D02*
Y139272D01*
X104823Y138779D02*
X105807D01*
X105315Y138287D02*
Y139272D01*
X97933Y138779D02*
X98917D01*
X98425Y138287D02*
Y139272D01*
X108760Y156496D02*
X109744D01*
X109252Y156004D02*
Y156988D01*
X104823Y156496D02*
X105807D01*
X105315Y156004D02*
Y156988D01*
X304626Y23622D02*
X305610D01*
X305118Y23130D02*
Y24114D01*
X300689Y23622D02*
X301673D01*
X301181Y23130D02*
Y24114D01*
X296752Y23622D02*
X297736D01*
X297244Y23130D02*
Y24114D01*
X188484Y25591D02*
X189469D01*
X188976Y25098D02*
Y26083D01*
X188484Y13780D02*
X189469D01*
X188976Y13287D02*
Y14272D01*
X316437Y55118D02*
X317421D01*
X316929Y54626D02*
Y55610D01*
X320374Y55118D02*
X321358D01*
X320866Y54626D02*
Y55610D01*
X338091Y55118D02*
X339075D01*
X338583Y54626D02*
Y55610D01*
X334154Y55118D02*
X335138D01*
X334646Y54626D02*
Y55610D01*
X342028Y43307D02*
X343012D01*
X342520Y42815D02*
Y43799D01*
X342028Y59055D02*
X343012D01*
X342520Y58563D02*
Y59547D01*
X342028Y70866D02*
X343012D01*
X342520Y70374D02*
Y71358D01*
X342028Y82677D02*
X343012D01*
X342520Y82185D02*
Y83169D01*
X342028Y94488D02*
X343012D01*
X342520Y93996D02*
Y94980D01*
X342028Y106299D02*
X343012D01*
X342520Y105807D02*
Y106791D01*
X342028Y118110D02*
X343012D01*
X342520Y117618D02*
Y118602D01*
X342028Y129921D02*
X343012D01*
X342520Y129429D02*
Y130413D01*
X342028Y141732D02*
X343012D01*
X342520Y141240D02*
Y142224D01*
X342028Y153543D02*
X343012D01*
X342520Y153051D02*
Y154035D01*
X67421Y70374D02*
X68405D01*
X67913Y69882D02*
Y70866D01*
X67421Y66929D02*
X68405D01*
X67913Y66437D02*
Y67421D01*
X67421Y63976D02*
X68405D01*
X67913Y63484D02*
Y64468D01*
X55610Y63976D02*
X56595D01*
X56102Y63484D02*
Y64468D01*
X55610Y67421D02*
X56595D01*
X56102Y66929D02*
Y67913D01*
X55610Y70866D02*
X56595D01*
X56102Y70374D02*
Y71358D01*
X237697Y85138D02*
X238681D01*
X238189Y84646D02*
Y85630D01*
X235728Y87106D02*
X236713D01*
X236221Y86614D02*
Y87598D01*
X210138Y106791D02*
X211122D01*
X210630Y106299D02*
Y107283D01*
X221457Y106791D02*
X222441D01*
X221949Y106299D02*
Y107283D01*
X215059Y110728D02*
X216043D01*
X215551Y110236D02*
Y111221D01*
X215059Y102854D02*
X216043D01*
X215551Y102362D02*
Y103347D01*
X182579Y108268D02*
X183563D01*
X183071Y107776D02*
Y108760D01*
X180610Y110728D02*
X181595D01*
X181102Y110236D02*
Y111221D01*
X172244Y119095D02*
X173228D01*
X172736Y118602D02*
Y119587D01*
X169783Y122047D02*
X170768D01*
X170276Y121555D02*
Y122539D01*
X167323Y125492D02*
X168307D01*
X167815Y125000D02*
Y125984D01*
X164862Y129429D02*
X165847D01*
X165354Y128937D02*
Y129921D01*
X167815Y131890D02*
X168799D01*
X168307Y131398D02*
Y132382D01*
X170276Y134350D02*
X171260D01*
X170768Y133858D02*
Y134843D01*
X173228Y136811D02*
X174213D01*
X173721Y136319D02*
Y137303D01*
X195866Y135827D02*
X196850D01*
X196358Y135335D02*
Y136319D01*
X197343Y137795D02*
X198327D01*
X197835Y137303D02*
Y138287D01*
X216535Y133858D02*
X217520D01*
X217028Y133366D02*
Y134350D01*
X216535Y136811D02*
X217520D01*
X217028Y136319D02*
Y137303D01*
X277559Y86122D02*
X278543D01*
X278051Y85630D02*
Y86614D01*
X277559Y91043D02*
X278543D01*
X278051Y90551D02*
Y91535D01*
X277559Y95965D02*
X278543D01*
X278051Y95473D02*
Y96457D01*
X289370Y85630D02*
X290354D01*
X289862Y85138D02*
Y86122D01*
X289370Y91043D02*
X290354D01*
X289862Y90551D02*
Y91535D01*
X289370Y95472D02*
X290354D01*
X289862Y94980D02*
Y95965D01*
X152165Y43661D02*
X153150D01*
X152657Y43169D02*
Y44153D01*
X127461Y68405D02*
X128445D01*
X127953Y67913D02*
Y68898D01*
X158465Y73819D02*
X159449D01*
X158957Y73327D02*
Y74311D01*
X148130Y63484D02*
X149114D01*
X148622Y62992D02*
Y63976D01*
X273091Y66159D02*
X274075D01*
X273583Y65667D02*
Y66651D01*
X258858Y57087D02*
X259842D01*
X259350Y56595D02*
Y57579D01*
X254429Y52165D02*
X255413D01*
X254921Y51673D02*
Y52658D01*
X253445Y76772D02*
X254429D01*
X253937Y76279D02*
Y77264D01*
X235728Y23622D02*
X236713D01*
X236221Y23130D02*
Y24114D01*
X232283Y23622D02*
X233268D01*
X232776Y23130D02*
Y24114D01*
X249508Y27559D02*
X250492D01*
X250000Y27067D02*
Y28051D01*
X229331Y135827D02*
X230315D01*
X229823Y135335D02*
Y136319D01*
X161417Y140748D02*
X162402D01*
X161909Y140256D02*
Y141240D01*
X196850Y67913D02*
X197835D01*
X197343Y67421D02*
Y68405D01*
X193405Y67913D02*
X194390D01*
X193898Y67421D02*
Y68405D01*
X226378Y50197D02*
X227362D01*
X226870Y49705D02*
Y50689D01*
X223425Y63484D02*
X224409D01*
X223917Y62992D02*
Y63976D01*
X223425Y65945D02*
X224409D01*
X223917Y65453D02*
Y66437D01*
X171752Y89567D02*
X172736D01*
X172244Y89075D02*
Y90059D01*
X178150Y82185D02*
X179134D01*
X178642Y81693D02*
Y82677D01*
X234484Y139704D02*
X235468D01*
X234976Y139212D02*
Y140196D01*
X246063Y121063D02*
X247047D01*
X246555Y120571D02*
Y121555D01*
X174213Y70866D02*
X175197D01*
X174705Y70374D02*
Y71358D01*
X203248Y132874D02*
X204232D01*
X203740Y132382D02*
Y133366D01*
X205709Y77756D02*
X206693D01*
X206201Y77264D02*
Y78248D01*
X158280Y84136D02*
X159264D01*
X158772Y83644D02*
Y84628D01*
X117014Y14265D02*
X117998D01*
X117506Y13773D02*
Y14757D01*
X274606Y152559D02*
X275590D01*
X275098Y152067D02*
Y153051D01*
X274606Y155020D02*
X275590D01*
X275098Y154528D02*
Y155512D01*
X124508Y38386D02*
X125492D01*
X125000Y37894D02*
Y38878D01*
X236234Y42647D02*
X237218D01*
X236726Y42155D02*
Y43139D01*
X237697Y50197D02*
X238681D01*
X238189Y49705D02*
Y50689D01*
X239665Y69882D02*
X240650D01*
X240158Y69390D02*
Y70374D01*
X214822Y53055D02*
X215806D01*
X215314Y52562D02*
Y53547D01*
X243602Y151575D02*
X244587D01*
X244094Y151083D02*
Y152067D01*
X111713Y138779D02*
X112697D01*
X112205Y138287D02*
Y139272D01*
X71358Y141732D02*
X72342D01*
X71850Y141240D02*
Y142224D01*
X172736Y68898D02*
X173721D01*
X173228Y68405D02*
Y69390D01*
X203075Y107987D02*
X204059D01*
X203567Y107495D02*
Y108479D01*
X207114Y52758D02*
X208098D01*
X207606Y52266D02*
Y53250D01*
X203820Y32931D02*
X204805D01*
X204313Y32439D02*
Y33423D01*
X189469Y33465D02*
X190453D01*
X189961Y32972D02*
Y33957D01*
X189469Y35433D02*
X190453D01*
X189961Y34941D02*
Y35925D01*
X208169Y62992D02*
X209154D01*
X208661Y62500D02*
Y63484D01*
X208169Y60039D02*
X209154D01*
X208661Y59547D02*
Y60532D01*
X208169Y57087D02*
X209154D01*
X208661Y56595D02*
Y57579D01*
X239665Y72835D02*
X240650D01*
X240158Y72342D02*
Y73327D01*
X168799Y51181D02*
X169783D01*
X169291Y50689D02*
Y51673D01*
X165847Y51181D02*
X166831D01*
X166339Y50689D02*
Y51673D01*
X162894Y51181D02*
X163878D01*
X163386Y50689D02*
Y51673D01*
X197835Y119587D02*
X198819D01*
X198327Y119095D02*
Y120079D01*
X236493Y92267D02*
X237477D01*
X236985Y91775D02*
Y92759D01*
X124508Y66929D02*
X125492D01*
X125000Y66437D02*
Y67421D01*
X231791Y76279D02*
X232776D01*
X232283Y75787D02*
Y76772D01*
X185611Y35645D02*
X186595D01*
X186103Y35153D02*
Y36137D01*
X187500Y87106D02*
X188484D01*
X187992Y86614D02*
Y87598D01*
X189469Y123524D02*
X190453D01*
X189961Y123031D02*
Y124016D01*
X114764Y165354D02*
X115551D01*
X115157Y164961D02*
Y165748D01*
X114764Y173228D02*
X115551D01*
X115157Y172835D02*
Y173622D01*
X108858Y173228D02*
X109646D01*
X109252Y172835D02*
Y173622D01*
X108858Y165354D02*
X109646D01*
X109252Y164961D02*
Y165748D01*
X82677Y4921D02*
X83661D01*
X83169Y4429D02*
Y5413D01*
X82677Y6890D02*
X83661D01*
X83169Y6398D02*
Y7382D01*
X117633Y70975D02*
X118617D01*
X118125Y70483D02*
Y71467D01*
X225394Y152559D02*
X226378D01*
X225886Y152067D02*
Y153051D01*
X243602Y154035D02*
X244587D01*
X244094Y153543D02*
Y154527D01*
X243602Y156496D02*
X244587D01*
X244094Y156004D02*
Y156988D01*
X241634Y159449D02*
X242618D01*
X242126Y158957D02*
Y159941D01*
X241634Y161909D02*
X242618D01*
X242126Y161417D02*
Y162402D01*
X241634Y164370D02*
X242618D01*
X242126Y163878D02*
Y164862D01*
X266240Y148130D02*
X267224D01*
X266732Y147638D02*
Y148622D01*
X264272Y148130D02*
X265256D01*
X264764Y147638D02*
Y148622D01*
X262303Y148130D02*
X263287D01*
X262795Y147638D02*
Y148622D01*
X234744Y164370D02*
X235728D01*
X235236Y163878D02*
Y164862D01*
X234744Y166339D02*
X235728D01*
X235236Y165847D02*
Y166831D01*
X234744Y168307D02*
X235728D01*
X235236Y167815D02*
Y168799D01*
X222933Y166339D02*
X223917D01*
X223425Y165847D02*
Y166831D01*
X219980Y166339D02*
X220965D01*
X220472Y165847D02*
Y166831D01*
X216043Y167323D02*
X217028D01*
X216535Y166831D02*
Y167815D01*
X213091Y167323D02*
X214075D01*
X213583Y166831D02*
Y167815D01*
X189469Y183071D02*
X190453D01*
X189961Y182579D02*
Y183563D01*
X189469Y178150D02*
X190453D01*
X189961Y177657D02*
Y178642D01*
X189469Y174213D02*
X190453D01*
X189961Y173721D02*
Y174705D01*
X203248Y174213D02*
X204232D01*
X203740Y173721D02*
Y174705D01*
X203248Y178150D02*
X204232D01*
X203740Y177657D02*
Y178642D01*
X203248Y183071D02*
X204232D01*
X203740Y182579D02*
Y183563D01*
X33957Y151575D02*
X34941D01*
X34449Y151083D02*
Y152067D01*
X33957Y148622D02*
X34941D01*
X34449Y148130D02*
Y149114D01*
X33957Y145669D02*
X34941D01*
X34449Y145177D02*
Y146161D01*
X24114Y145669D02*
X25098D01*
X24606Y145177D02*
Y146161D01*
X24114Y148622D02*
X25098D01*
X24606Y148130D02*
Y149114D01*
X24114Y151575D02*
X25098D01*
X24606Y151083D02*
Y152067D01*
X56595Y121063D02*
X57579D01*
X57087Y120571D02*
Y121555D01*
X56595Y117126D02*
X57579D01*
X57087Y116634D02*
Y117618D01*
X56595Y113189D02*
X57579D01*
X57087Y112697D02*
Y113681D01*
X66437Y113189D02*
X67421D01*
X66929Y112697D02*
Y113681D01*
X66437Y117126D02*
X67421D01*
X66929Y116634D02*
Y117618D01*
X66437Y121063D02*
X67421D01*
X66929Y120571D02*
Y121555D01*
X71358Y137795D02*
X72342D01*
X71850Y137303D02*
Y138287D01*
X71358Y133858D02*
X72342D01*
X71850Y133366D02*
Y134350D01*
X61516Y133858D02*
X62500D01*
X62008Y133366D02*
Y134350D01*
X61516Y137795D02*
X62500D01*
X62008Y137303D02*
Y138287D01*
X61516Y141732D02*
X62500D01*
X62008Y141240D02*
Y142224D01*
X142224Y163386D02*
X143209D01*
X142717Y162894D02*
Y163878D01*
X142224Y168307D02*
X143209D01*
X142717Y167815D02*
Y168799D01*
X137303Y168307D02*
X138287D01*
X137795Y167815D02*
Y168799D01*
X133366Y168307D02*
X134350D01*
X133858Y167815D02*
Y168799D01*
X127461Y169291D02*
X128445D01*
X127953Y168799D02*
Y169783D01*
X127461Y172244D02*
X128445D01*
X127953Y171752D02*
Y172736D01*
M02*
