G04*
G04 #@! TF.GenerationSoftware,Altium Limited,Altium Designer,21.4.1 (30)*
G04*
G04 Layer_Physical_Order=2*
G04 Layer_Color=16711680*
%FSLAX25Y25*%
%MOIN*%
G70*
G04*
G04 #@! TF.SameCoordinates,5F1AA903-488D-4DD6-8C3F-381C7BA84995*
G04*
G04*
G04 #@! TF.FilePolarity,Positive*
G04*
G01*
G75*
%ADD11C,0.00787*%
%ADD13C,0.01000*%
%ADD107C,0.02362*%
%ADD109R,0.06000X0.06000*%
%ADD110C,0.06000*%
%ADD111R,0.09449X0.07087*%
%ADD112O,0.09449X0.07087*%
%ADD113C,0.27559*%
%ADD114C,0.01968*%
G36*
X320564Y193037D02*
X321383Y192577D01*
X322385Y192173D01*
X323570Y191827D01*
X324937Y191537D01*
X326486Y191305D01*
X330132Y191011D01*
X334508Y190944D01*
X320867Y177303D01*
X320862Y179582D01*
X320506Y185325D01*
X320273Y186874D01*
X319984Y188241D01*
X319638Y189426D01*
X319234Y190428D01*
X318774Y191247D01*
X318257Y191884D01*
X319927Y193554D01*
X320564Y193037D01*
D02*
G37*
G36*
X36074Y191884D02*
X35557Y191247D01*
X35096Y190428D01*
X34693Y189426D01*
X34347Y188241D01*
X34057Y186874D01*
X33825Y185325D01*
X33530Y181679D01*
X33464Y177303D01*
X19823Y190944D01*
X22102Y190949D01*
X27845Y191305D01*
X29394Y191537D01*
X30761Y191827D01*
X31945Y192173D01*
X32947Y192577D01*
X33767Y193037D01*
X34404Y193554D01*
X36074Y191884D01*
D02*
G37*
G36*
X348429Y174748D02*
X348785Y169006D01*
X349018Y167456D01*
X349307Y166089D01*
X349654Y164905D01*
X350057Y163903D01*
X350518Y163084D01*
X351035Y162447D01*
X349364Y160776D01*
X348727Y161294D01*
X347908Y161754D01*
X346906Y162157D01*
X345722Y162504D01*
X344355Y162793D01*
X342806Y163026D01*
X339159Y163320D01*
X334784Y163386D01*
X348425Y177027D01*
X348429Y174748D01*
D02*
G37*
G36*
X19547Y163386D02*
X17268Y163382D01*
X11525Y163026D01*
X9976Y162793D01*
X8609Y162504D01*
X7425Y162157D01*
X6423Y161754D01*
X5603Y161294D01*
X4966Y160776D01*
X3296Y162447D01*
X3813Y163084D01*
X4274Y163903D01*
X4677Y164905D01*
X5023Y166089D01*
X5313Y167456D01*
X5545Y169006D01*
X5840Y172652D01*
X5906Y177027D01*
X19547Y163386D01*
D02*
G37*
G36*
X351035Y34404D02*
X350518Y33767D01*
X350057Y32947D01*
X349654Y31945D01*
X349307Y30761D01*
X349018Y29394D01*
X348785Y27845D01*
X348491Y24199D01*
X348425Y19823D01*
X334784Y33464D01*
X337063Y33469D01*
X342806Y33825D01*
X344355Y34057D01*
X345722Y34347D01*
X346906Y34693D01*
X347908Y35096D01*
X348727Y35557D01*
X349364Y36074D01*
X351035Y34404D01*
D02*
G37*
G36*
X5603Y35557D02*
X6423Y35096D01*
X7425Y34693D01*
X8609Y34347D01*
X9976Y34057D01*
X11525Y33825D01*
X15171Y33530D01*
X19547Y33464D01*
X5906Y19823D01*
X5901Y22102D01*
X5545Y27845D01*
X5313Y29394D01*
X5023Y30761D01*
X4677Y31945D01*
X4274Y32947D01*
X3813Y33767D01*
X3296Y34404D01*
X4966Y36074D01*
X5603Y35557D01*
D02*
G37*
G36*
X314961Y169291D02*
X326772Y157480D01*
X348186D01*
Y39370D01*
X314961D01*
Y6145D01*
X97952D01*
Y7382D01*
X97876Y7766D01*
X97658Y8091D01*
X96674Y9076D01*
X96349Y9293D01*
X95965Y9370D01*
X73327D01*
X72943Y9293D01*
X72617Y9076D01*
X71633Y8091D01*
X71415Y7766D01*
X71339Y7382D01*
Y6145D01*
X39370D01*
X39370Y27559D01*
X27559Y39370D01*
X6145Y39370D01*
Y157480D01*
X27559D01*
X39370Y169291D01*
X39370Y188976D01*
X314961D01*
X314961Y169291D01*
D02*
G37*
G36*
X96949Y7382D02*
Y4429D01*
X95965Y3445D01*
X73327D01*
X72342Y4429D01*
Y7382D01*
X73327Y8366D01*
X95965D01*
X96949Y7382D01*
D02*
G37*
G36*
X334508Y5906D02*
X332229Y5901D01*
X326486Y5545D01*
X324937Y5313D01*
X323570Y5023D01*
X322385Y4677D01*
X321383Y4274D01*
X320564Y3813D01*
X319927Y3296D01*
X318257Y4966D01*
X318774Y5603D01*
X319234Y6423D01*
X319638Y7425D01*
X319984Y8609D01*
X320273Y9976D01*
X320506Y11525D01*
X320800Y15171D01*
X320867Y19547D01*
X334508Y5906D01*
D02*
G37*
G36*
X33469Y17268D02*
X33825Y11525D01*
X34057Y9976D01*
X34347Y8609D01*
X34693Y7425D01*
X35096Y6423D01*
X35557Y5603D01*
X36074Y4966D01*
X34404Y3296D01*
X33767Y3813D01*
X32947Y4274D01*
X31945Y4677D01*
X30761Y5023D01*
X29394Y5313D01*
X27845Y5545D01*
X24199Y5840D01*
X19823Y5906D01*
X33464Y19547D01*
X33469Y17268D01*
D02*
G37*
%LPC*%
G36*
X55118Y162421D02*
X50197D01*
X49813Y162345D01*
X49487Y162127D01*
X47519Y160158D01*
X47301Y159833D01*
X47225Y159449D01*
Y156496D01*
X47301Y156112D01*
X47519Y155787D01*
X49487Y153818D01*
X49813Y153600D01*
X50197Y153524D01*
X55118D01*
X55502Y153600D01*
X55828Y153818D01*
X57796Y155787D01*
X58014Y156112D01*
X58043Y156257D01*
X69952D01*
X92927Y133281D01*
X93643Y132803D01*
X94488Y132635D01*
X123031D01*
X123876Y132803D01*
X124593Y133281D01*
X134773Y143462D01*
X237275D01*
X269615Y111121D01*
X270331Y110643D01*
X271176Y110475D01*
X273933D01*
X275865Y108542D01*
X276191Y108325D01*
X276575Y108248D01*
X281496D01*
X281880Y108325D01*
X282206Y108542D01*
X284174Y110511D01*
X284392Y110836D01*
X284468Y111221D01*
Y114173D01*
X284392Y114557D01*
X284174Y114883D01*
X282206Y116851D01*
X281880Y117069D01*
X281496Y117145D01*
X276575D01*
X276191Y117069D01*
X275865Y116851D01*
X273904Y114890D01*
X272090D01*
X239750Y147230D01*
X239034Y147709D01*
X238189Y147877D01*
X133858D01*
X133013Y147709D01*
X132297Y147230D01*
X122117Y137050D01*
X113967D01*
X113759Y137550D01*
X113874Y137664D01*
X114173Y138388D01*
Y139171D01*
X113874Y139895D01*
X113670Y140098D01*
X113627Y140168D01*
X113610Y140185D01*
X113610Y140189D01*
Y145087D01*
X119676Y151154D01*
X224477D01*
X224480Y151153D01*
X224498Y151137D01*
X224567Y151094D01*
X224771Y150890D01*
X225494Y150591D01*
X226277D01*
X227001Y150890D01*
X227555Y151444D01*
X227854Y152167D01*
Y152951D01*
X227555Y153674D01*
X227001Y154228D01*
X226277Y154528D01*
X225494D01*
X224771Y154228D01*
X224567Y154024D01*
X224498Y153981D01*
X224480Y153965D01*
X224477Y153964D01*
X119095D01*
X118557Y153857D01*
X118101Y153552D01*
X111211Y146663D01*
X110907Y146207D01*
X110800Y145669D01*
Y140189D01*
X110799Y140185D01*
X110783Y140168D01*
X110740Y140098D01*
X110536Y139895D01*
X110236Y139171D01*
Y138388D01*
X110536Y137664D01*
X110650Y137550D01*
X110443Y137050D01*
X95403D01*
X72427Y160026D01*
X71711Y160504D01*
X70866Y160672D01*
X57282D01*
X55828Y162127D01*
X55502Y162345D01*
X55118Y162421D01*
D02*
G37*
G36*
X261811Y170787D02*
X234744D01*
X234360Y170711D01*
X234034Y170493D01*
X233050Y169509D01*
X232833Y169183D01*
X232756Y168799D01*
Y163386D01*
X232833Y163002D01*
X233050Y162676D01*
X234034Y161692D01*
X234360Y161474D01*
X234744Y161398D01*
X236713D01*
X237097Y161474D01*
X237422Y161692D01*
X238406Y162676D01*
X238624Y163002D01*
X238700Y163386D01*
Y164939D01*
X239589Y165827D01*
X260903D01*
X262776Y163954D01*
Y151990D01*
X260117Y149332D01*
X259900Y149006D01*
X259823Y148622D01*
Y147146D01*
X259900Y146762D01*
X260117Y146436D01*
X261101Y145452D01*
X261427Y145234D01*
X261811Y145158D01*
X267717D01*
X268101Y145234D01*
X268426Y145452D01*
X269410Y146436D01*
X269628Y146762D01*
X269704Y147146D01*
Y148622D01*
X269628Y149006D01*
X269410Y149332D01*
X266752Y151990D01*
Y165847D01*
X266675Y166230D01*
X266458Y166556D01*
X262521Y170493D01*
X262195Y170711D01*
X261811Y170787D01*
D02*
G37*
G36*
X162301Y142717D02*
X161518D01*
X160794Y142417D01*
X160241Y141863D01*
X159941Y141140D01*
Y140357D01*
X160241Y139633D01*
X160794Y139079D01*
X161518Y138779D01*
X162301D01*
X163024Y139079D01*
X163228Y139283D01*
X163298Y139326D01*
X163315Y139342D01*
X163319Y139343D01*
X224320D01*
X227833Y135830D01*
X227835Y135827D01*
X227836Y135803D01*
X227854Y135723D01*
Y135435D01*
X228154Y134712D01*
X228708Y134158D01*
X229431Y133858D01*
X230214D01*
X230938Y134158D01*
X231492Y134712D01*
X231791Y135435D01*
Y136218D01*
X231492Y136942D01*
X230938Y137496D01*
X230214Y137795D01*
X229926D01*
X229847Y137814D01*
X229823Y137815D01*
X229820Y137817D01*
X225895Y141742D01*
X225439Y142046D01*
X224902Y142153D01*
X163319D01*
X163315Y142154D01*
X163298Y142170D01*
X163228Y142213D01*
X163024Y142417D01*
X162301Y142717D01*
D02*
G37*
G36*
X235367Y141673D02*
X234584D01*
X233861Y141373D01*
X233307Y140819D01*
X233007Y140096D01*
Y139313D01*
X233307Y138589D01*
X233861Y138036D01*
X234584Y137736D01*
X235367D01*
X236091Y138036D01*
X236295Y138239D01*
X236364Y138282D01*
X236381Y138298D01*
X236385Y138299D01*
X237174D01*
X245150Y130324D01*
Y122472D01*
X245149Y122469D01*
X245133Y122451D01*
X245090Y122382D01*
X244886Y122178D01*
X244587Y121455D01*
Y120671D01*
X244886Y119948D01*
X245440Y119394D01*
X246164Y119095D01*
X246947D01*
X247670Y119394D01*
X248224Y119948D01*
X248524Y120671D01*
Y121455D01*
X248224Y122178D01*
X248020Y122382D01*
X247977Y122451D01*
X247961Y122469D01*
X247960Y122472D01*
Y130905D01*
X247853Y131443D01*
X247549Y131899D01*
X238750Y140698D01*
X238294Y141002D01*
X237756Y141109D01*
X236385D01*
X236381Y141110D01*
X236364Y141126D01*
X236295Y141169D01*
X236091Y141373D01*
X235367Y141673D01*
D02*
G37*
G36*
X198718Y121555D02*
X197935D01*
X197212Y121255D01*
X196658Y120702D01*
X196358Y119978D01*
Y119195D01*
X196658Y118472D01*
X197212Y117918D01*
X197935Y117618D01*
X198718D01*
X199442Y117918D01*
X199645Y118122D01*
X199715Y118165D01*
X199723Y118172D01*
X205288Y112607D01*
Y109758D01*
X204788Y109550D01*
X204682Y109656D01*
X203959Y109956D01*
X203176D01*
X202452Y109656D01*
X201898Y109102D01*
X201599Y108379D01*
Y107596D01*
X201898Y106872D01*
X202102Y106669D01*
X202145Y106599D01*
X202161Y106582D01*
X202162Y106578D01*
Y105724D01*
X197253Y100814D01*
X182087D01*
X181549Y100707D01*
X181093Y100403D01*
X172247Y91557D01*
X172244Y91555D01*
X172220Y91554D01*
X172141Y91535D01*
X171853D01*
X171129Y91236D01*
X170575Y90682D01*
X170276Y89959D01*
Y89175D01*
X170575Y88452D01*
X171129Y87898D01*
X171305Y87825D01*
X171403Y87335D01*
X169249Y85181D01*
X168944Y84725D01*
X168837Y84187D01*
Y82241D01*
X151485Y64889D01*
X150031D01*
X150028Y64890D01*
X150011Y64906D01*
X149941Y64949D01*
X149737Y65153D01*
X149014Y65453D01*
X148231D01*
X147507Y65153D01*
X146953Y64599D01*
X146653Y63876D01*
Y63093D01*
X146756Y62844D01*
X146479Y62429D01*
X132472D01*
X129358Y65543D01*
Y66997D01*
X129358Y67000D01*
X129375Y67017D01*
X129418Y67087D01*
X129622Y67290D01*
X129921Y68014D01*
Y68797D01*
X129622Y69521D01*
X129068Y70074D01*
X128344Y70374D01*
X127561D01*
X126838Y70074D01*
X126284Y69521D01*
X126124Y69135D01*
X125522Y68844D01*
X125392Y68898D01*
X124608D01*
X123885Y68598D01*
X123331Y68044D01*
X123031Y67321D01*
Y66538D01*
X123331Y65814D01*
X123535Y65610D01*
X123578Y65541D01*
X123594Y65523D01*
X123595Y65520D01*
Y63484D01*
X123702Y62947D01*
X124006Y62491D01*
X128928Y57569D01*
X129384Y57265D01*
X129921Y57158D01*
X153874D01*
X154090Y56735D01*
X154097Y56675D01*
X151664Y54242D01*
X151359Y53786D01*
X151252Y53248D01*
Y45070D01*
X151252Y45067D01*
X151236Y45050D01*
X151192Y44980D01*
X150989Y44776D01*
X150689Y44053D01*
Y43270D01*
X150989Y42546D01*
X151192Y42343D01*
X151235Y42273D01*
X151252Y42256D01*
X151252Y42252D01*
Y41496D01*
Y22826D01*
X144097Y15670D01*
X118915D01*
X118911Y15671D01*
X118894Y15687D01*
X118825Y15730D01*
X118621Y15934D01*
X117897Y16234D01*
X117114D01*
X116391Y15934D01*
X115837Y15380D01*
X115537Y14657D01*
Y13874D01*
X115837Y13150D01*
X116391Y12596D01*
X117114Y12297D01*
X117897D01*
X118621Y12596D01*
X118825Y12800D01*
X118894Y12843D01*
X118911Y12859D01*
X118915Y12860D01*
X144679D01*
X145216Y12967D01*
X145672Y13272D01*
X153651Y21251D01*
X153955Y21707D01*
X154062Y22244D01*
Y41496D01*
Y42252D01*
X154063Y42256D01*
X154079Y42273D01*
X154123Y42343D01*
X154326Y42546D01*
X154626Y43270D01*
Y44053D01*
X154326Y44776D01*
X154123Y44980D01*
X154079Y45050D01*
X154063Y45067D01*
X154062Y45070D01*
Y52666D01*
X177747Y76351D01*
X204792D01*
X204795Y76350D01*
X204812Y76334D01*
X204882Y76291D01*
X205086Y76087D01*
X205809Y75787D01*
X206592D01*
X207316Y76087D01*
X207520Y76291D01*
X207589Y76334D01*
X207606Y76350D01*
X207610Y76351D01*
X226288D01*
X227353Y75286D01*
X227809Y74981D01*
X228346Y74875D01*
X230874D01*
X230878Y74874D01*
X230895Y74858D01*
X230965Y74814D01*
X231168Y74611D01*
X231892Y74311D01*
X231873Y73819D01*
X208661D01*
X205709Y70866D01*
Y60039D01*
X202756Y57087D01*
X162894D01*
X157480Y51673D01*
Y36417D01*
X163386Y30512D01*
X252953D01*
X257874Y35433D01*
Y39370D01*
Y54115D01*
X263779D01*
X264164Y54191D01*
X264489Y54409D01*
X265473Y55393D01*
X265691Y55718D01*
X265767Y56102D01*
Y58071D01*
X265691Y58455D01*
X265473Y58780D01*
X264489Y59765D01*
X264164Y59982D01*
X263779Y60059D01*
X257874D01*
Y61344D01*
X261175Y64645D01*
X272312D01*
X272468Y64490D01*
X273191Y64190D01*
X273974D01*
X274698Y64490D01*
X275252Y65043D01*
X275551Y65767D01*
Y66550D01*
X275252Y67274D01*
X274698Y67827D01*
X273974Y68127D01*
X273191D01*
X272468Y67827D01*
X272312Y67672D01*
X272311Y67672D01*
X260548D01*
X260548Y67672D01*
X259969Y67557D01*
X259478Y67229D01*
X259478Y67229D01*
X258336Y66086D01*
X257874Y66278D01*
Y78740D01*
X253937Y82677D01*
X242126Y82677D01*
X234338Y74890D01*
X233952Y75165D01*
X234252Y75888D01*
Y76671D01*
X233952Y77395D01*
X233399Y77948D01*
X232675Y78248D01*
X231892D01*
X231168Y77948D01*
X230965Y77745D01*
X230895Y77701D01*
X230878Y77685D01*
X230874Y77684D01*
X228928D01*
X227864Y78749D01*
X227408Y79054D01*
X226870Y79161D01*
X207610D01*
X207606Y79162D01*
X207589Y79178D01*
X207520Y79221D01*
X207316Y79425D01*
X206592Y79724D01*
X205809D01*
X205086Y79425D01*
X204882Y79221D01*
X204812Y79178D01*
X204795Y79162D01*
X204792Y79161D01*
X177165D01*
X176628Y79054D01*
X176172Y78749D01*
X176016Y78594D01*
X175956Y78602D01*
X175533Y78818D01*
Y82180D01*
X176275Y82921D01*
X176699Y82638D01*
X176673Y82577D01*
Y81793D01*
X176973Y81070D01*
X177527Y80516D01*
X178250Y80216D01*
X179033D01*
X179757Y80516D01*
X180310Y81070D01*
X180610Y81793D01*
Y82577D01*
X180310Y83300D01*
X180107Y83504D01*
X180064Y83574D01*
X180056Y83581D01*
X182176Y85701D01*
X186583D01*
X186586Y85701D01*
X186604Y85684D01*
X186673Y85641D01*
X186877Y85438D01*
X187601Y85138D01*
X188384D01*
X189107Y85438D01*
X189661Y85991D01*
X189961Y86715D01*
Y87498D01*
X189661Y88221D01*
X189107Y88775D01*
X188384Y89075D01*
X187601D01*
X186877Y88775D01*
X186673Y88571D01*
X186604Y88528D01*
X186586Y88512D01*
X186583Y88511D01*
X182518D01*
X182327Y88973D01*
X184468Y91115D01*
X216367D01*
X216904Y91222D01*
X217360Y91526D01*
X222446Y96613D01*
X230653D01*
X234996Y92270D01*
X234997Y92267D01*
X234998Y92243D01*
X235017Y92164D01*
Y91876D01*
X235316Y91152D01*
X235870Y90598D01*
X236594Y90299D01*
X237377D01*
X238100Y90598D01*
X238654Y91152D01*
X238954Y91876D01*
Y92520D01*
X239565D01*
X240288Y92819D01*
X240842Y93373D01*
X241142Y94097D01*
Y94880D01*
X240842Y95603D01*
X240288Y96157D01*
X239565Y96457D01*
X239026D01*
X239022Y96457D01*
X234681Y100798D01*
X234225Y101103D01*
X233688Y101210D01*
X220868D01*
X220330Y101103D01*
X219874Y100798D01*
X214969Y95893D01*
X200896D01*
X200704Y96355D01*
X207686Y103337D01*
X207991Y103793D01*
X208098Y104331D01*
Y113189D01*
X207991Y113727D01*
X207686Y114182D01*
X201289Y120580D01*
X200833Y120885D01*
X200295Y120992D01*
X199736D01*
X199732Y120992D01*
X199715Y121009D01*
X199645Y121052D01*
X199442Y121255D01*
X198718Y121555D01*
D02*
G37*
G36*
X336417Y116732D02*
X325000D01*
Y107677D01*
X336417D01*
Y116732D01*
D02*
G37*
G36*
X24803Y114803D02*
X22441D01*
X21259Y114647D01*
X20158Y114191D01*
X19212Y113465D01*
X18486Y112520D01*
X18030Y111418D01*
X17874Y110236D01*
X18030Y109054D01*
X18486Y107953D01*
X19212Y107007D01*
X20158Y106281D01*
X21259Y105825D01*
X22441Y105670D01*
X24803D01*
X25985Y105825D01*
X27086Y106281D01*
X28032Y107007D01*
X28758Y107953D01*
X29214Y109054D01*
X29370Y110236D01*
X29214Y111418D01*
X28758Y112520D01*
X28032Y113465D01*
X27086Y114191D01*
X25985Y114647D01*
X24803Y114803D01*
D02*
G37*
G36*
X331890Y103008D02*
X331496D01*
Y99213D01*
X336369D01*
X336316Y99611D01*
X335858Y100716D01*
X335130Y101665D01*
X334181Y102394D01*
X333076Y102852D01*
X331890Y103008D01*
D02*
G37*
G36*
X329921D02*
X329528D01*
X328342Y102852D01*
X327236Y102394D01*
X326287Y101665D01*
X325559Y100716D01*
X325101Y99611D01*
X325049Y99213D01*
X329921D01*
Y103008D01*
D02*
G37*
G36*
X336369Y97638D02*
X331496D01*
Y93843D01*
X331890D01*
X333076Y93999D01*
X334181Y94457D01*
X335130Y95185D01*
X335858Y96134D01*
X336316Y97239D01*
X336369Y97638D01*
D02*
G37*
G36*
X329921D02*
X325049D01*
X325101Y97239D01*
X325559Y96134D01*
X326287Y95185D01*
X327236Y94457D01*
X328342Y93999D01*
X329528Y93843D01*
X329921D01*
Y97638D01*
D02*
G37*
G36*
X24803Y101023D02*
X22441D01*
X21259Y100868D01*
X20158Y100411D01*
X19212Y99686D01*
X18486Y98740D01*
X18030Y97639D01*
X17874Y96457D01*
X18030Y95275D01*
X18486Y94173D01*
X19212Y93228D01*
X20158Y92502D01*
X21259Y92046D01*
X22441Y91890D01*
X24803D01*
X25985Y92046D01*
X27086Y92502D01*
X28032Y93228D01*
X28758Y94173D01*
X29214Y95275D01*
X29370Y96457D01*
X29214Y97639D01*
X28758Y98740D01*
X28032Y99686D01*
X27086Y100411D01*
X25985Y100868D01*
X24803Y101023D01*
D02*
G37*
G36*
X204132Y134843D02*
X203349D01*
X202625Y134543D01*
X202071Y133989D01*
X201772Y133266D01*
Y132978D01*
X201753Y132898D01*
X201752Y132874D01*
X201750Y132871D01*
X199221Y130342D01*
X195374D01*
X194836Y130235D01*
X194381Y129930D01*
X189963Y125513D01*
X189961Y125512D01*
X189937Y125511D01*
X189857Y125492D01*
X189569D01*
X188846Y125192D01*
X188292Y124639D01*
X187992Y123915D01*
Y123627D01*
X187973Y123547D01*
X187973Y123524D01*
X187971Y123521D01*
X182077Y117627D01*
X182077Y117627D01*
X166822Y102371D01*
X157778Y93328D01*
X157474Y92872D01*
X157367Y92335D01*
Y85545D01*
X157366Y85542D01*
X157350Y85525D01*
X157307Y85455D01*
X157103Y85251D01*
X156803Y84528D01*
Y83745D01*
X157103Y83021D01*
X157657Y82468D01*
X158380Y82168D01*
X159163D01*
X159887Y82468D01*
X160441Y83021D01*
X160740Y83745D01*
Y84528D01*
X160441Y85251D01*
X160237Y85455D01*
X160194Y85525D01*
X160178Y85542D01*
X160177Y85545D01*
Y91753D01*
X168808Y100384D01*
X184064Y115640D01*
X184064Y115640D01*
X189958Y121534D01*
X189961Y121536D01*
X189984Y121536D01*
X190064Y121555D01*
X190352D01*
X191076Y121855D01*
X191629Y122408D01*
X191929Y123132D01*
Y123420D01*
X191948Y123500D01*
X191949Y123523D01*
X191950Y123527D01*
X195956Y127532D01*
X199803D01*
X200341Y127639D01*
X200797Y127944D01*
X203737Y130884D01*
X203740Y130886D01*
X203764Y130887D01*
X203844Y130905D01*
X204132D01*
X204855Y131205D01*
X205409Y131759D01*
X205709Y132483D01*
Y133266D01*
X205409Y133989D01*
X204855Y134543D01*
X204132Y134843D01*
D02*
G37*
G36*
X331890Y89212D02*
X329528D01*
X328346Y89057D01*
X327244Y88600D01*
X326298Y87875D01*
X325573Y86929D01*
X325116Y85828D01*
X324961Y84646D01*
X325116Y83464D01*
X325573Y82362D01*
X326298Y81417D01*
X327244Y80691D01*
X328346Y80235D01*
X329528Y80079D01*
X331890D01*
X333072Y80235D01*
X334173Y80691D01*
X335119Y81417D01*
X335845Y82362D01*
X336301Y83464D01*
X336456Y84646D01*
X336301Y85828D01*
X335845Y86929D01*
X335119Y87875D01*
X334173Y88600D01*
X333072Y89057D01*
X331890Y89212D01*
D02*
G37*
G36*
X24803Y87244D02*
X22441D01*
X21259Y87088D01*
X20158Y86632D01*
X19212Y85906D01*
X18486Y84961D01*
X18030Y83859D01*
X17874Y82677D01*
X18030Y81495D01*
X18486Y80394D01*
X19212Y79448D01*
X20158Y78722D01*
X21259Y78266D01*
X22441Y78111D01*
X24803D01*
X25985Y78266D01*
X27086Y78722D01*
X28032Y79448D01*
X28758Y80394D01*
X29214Y81495D01*
X29370Y82677D01*
X29214Y83859D01*
X28758Y84961D01*
X28032Y85906D01*
X27086Y86632D01*
X25985Y87088D01*
X24803Y87244D01*
D02*
G37*
G36*
X29346Y73441D02*
X24409D01*
Y69685D01*
X29346D01*
Y73441D01*
D02*
G37*
G36*
X22835D02*
X17898D01*
Y69685D01*
X22835D01*
Y73441D01*
D02*
G37*
G36*
X118517Y72944D02*
X117734D01*
X117010Y72644D01*
X116456Y72090D01*
X116157Y71367D01*
Y70584D01*
X116456Y69860D01*
X117010Y69306D01*
X117734Y69007D01*
X118517D01*
X119240Y69306D01*
X119794Y69860D01*
X120094Y70584D01*
Y71367D01*
X119794Y72090D01*
X119240Y72644D01*
X118517Y72944D01*
D02*
G37*
G36*
X331890Y75433D02*
X329528D01*
X328346Y75277D01*
X327244Y74821D01*
X326298Y74095D01*
X325573Y73150D01*
X325116Y72048D01*
X324961Y70866D01*
X325116Y69684D01*
X325573Y68583D01*
X326298Y67637D01*
X327244Y66911D01*
X328346Y66455D01*
X329528Y66299D01*
X331890D01*
X333072Y66455D01*
X334173Y66911D01*
X335119Y67637D01*
X335845Y68583D01*
X336301Y69684D01*
X336456Y70866D01*
X336301Y72048D01*
X335845Y73150D01*
X335119Y74095D01*
X334173Y74821D01*
X333072Y75277D01*
X331890Y75433D01*
D02*
G37*
G36*
X29346Y68110D02*
X24409D01*
Y64354D01*
X29346D01*
Y68110D01*
D02*
G37*
G36*
X22835D02*
X17898D01*
Y64354D01*
X22835D01*
Y68110D01*
D02*
G37*
G36*
X291386Y29240D02*
X283417D01*
Y21272D01*
X291386D01*
Y29240D01*
D02*
G37*
G36*
X287926Y19240D02*
X286877D01*
X285864Y18969D01*
X284955Y18444D01*
X284213Y17702D01*
X283689Y16794D01*
X283417Y15780D01*
Y14731D01*
X283689Y13718D01*
X284213Y12810D01*
X284955Y12068D01*
X285864Y11543D01*
X286877Y11272D01*
X287926D01*
X288939Y11543D01*
X289848Y12068D01*
X290590Y12810D01*
X291114Y13718D01*
X291386Y14731D01*
Y15780D01*
X291114Y16794D01*
X290590Y17702D01*
X289848Y18444D01*
X288939Y18969D01*
X287926Y19240D01*
D02*
G37*
G36*
X50321Y28822D02*
X40354D01*
Y8858D01*
X50321D01*
Y28822D01*
D02*
G37*
%LPD*%
G36*
X57087Y159449D02*
Y156496D01*
X55118Y154528D01*
X50197D01*
X48228Y156496D01*
Y159449D01*
X50197Y161417D01*
X55118D01*
X57087Y159449D01*
D02*
G37*
G36*
X225183Y151870D02*
X225123Y151926D01*
X225059Y151976D01*
X224990Y152021D01*
X224918Y152059D01*
X224841Y152092D01*
X224760Y152118D01*
X224674Y152139D01*
X224585Y152154D01*
X224491Y152162D01*
X224393Y152165D01*
Y152953D01*
X224491Y152956D01*
X224585Y152965D01*
X224674Y152979D01*
X224760Y153000D01*
X224841Y153027D01*
X224918Y153059D01*
X224990Y153097D01*
X225059Y153142D01*
X225123Y153192D01*
X225183Y153248D01*
Y151870D01*
D02*
G37*
G36*
X112601Y140174D02*
X112610Y140080D01*
X112625Y139991D01*
X112646Y139906D01*
X112672Y139825D01*
X112705Y139748D01*
X112743Y139675D01*
X112787Y139607D01*
X112838Y139542D01*
X112894Y139482D01*
X111516D01*
X111572Y139542D01*
X111622Y139607D01*
X111666Y139675D01*
X111705Y139748D01*
X111737Y139825D01*
X111764Y139906D01*
X111784Y139991D01*
X111799Y140080D01*
X111808Y140174D01*
X111811Y140272D01*
X112598D01*
X112601Y140174D01*
D02*
G37*
G36*
X283465Y114173D02*
Y111221D01*
X281496Y109252D01*
X276575D01*
X274606Y111221D01*
Y114173D01*
X276575Y116142D01*
X281496D01*
X283465Y114173D01*
D02*
G37*
G36*
X265748Y165847D02*
Y151575D01*
X268701Y148622D01*
Y147146D01*
X267717Y146161D01*
X261811D01*
X260827Y147146D01*
Y148622D01*
X263779Y151575D01*
Y164370D01*
X261319Y166831D01*
X239173D01*
X237697Y165354D01*
Y163386D01*
X236713Y162402D01*
X234744D01*
X233760Y163386D01*
Y168799D01*
X234744Y169783D01*
X261811D01*
X265748Y165847D01*
D02*
G37*
G36*
X162672Y141381D02*
X162737Y141331D01*
X162805Y141286D01*
X162878Y141248D01*
X162954Y141216D01*
X163036Y141189D01*
X163121Y141168D01*
X163210Y141154D01*
X163304Y141145D01*
X163402Y141142D01*
Y140354D01*
X163304Y140351D01*
X163210Y140342D01*
X163121Y140328D01*
X163036Y140307D01*
X162954Y140280D01*
X162878Y140248D01*
X162805Y140210D01*
X162737Y140165D01*
X162672Y140115D01*
X162612Y140059D01*
Y141437D01*
X162672Y141381D01*
D02*
G37*
G36*
X229117Y137093D02*
X229190Y137033D01*
X229263Y136981D01*
X229338Y136935D01*
X229415Y136896D01*
X229492Y136865D01*
X229570Y136841D01*
X229650Y136824D01*
X229731Y136814D01*
X229813Y136811D01*
X228839Y135837D01*
X228836Y135919D01*
X228826Y136000D01*
X228809Y136079D01*
X228785Y136158D01*
X228753Y136235D01*
X228715Y136311D01*
X228669Y136386D01*
X228616Y136460D01*
X228556Y136532D01*
X228489Y136604D01*
X229046Y137161D01*
X229117Y137093D01*
D02*
G37*
G36*
X235739Y140337D02*
X235803Y140287D01*
X235871Y140243D01*
X235944Y140204D01*
X236021Y140172D01*
X236102Y140145D01*
X236187Y140125D01*
X236277Y140110D01*
X236370Y140101D01*
X236468Y140098D01*
Y139311D01*
X236370Y139308D01*
X236277Y139299D01*
X236187Y139284D01*
X236102Y139263D01*
X236021Y139237D01*
X235944Y139204D01*
X235871Y139166D01*
X235803Y139122D01*
X235739Y139071D01*
X235679Y139015D01*
Y140393D01*
X235739Y140337D01*
D02*
G37*
G36*
X246952Y122458D02*
X246961Y122364D01*
X246975Y122274D01*
X246996Y122189D01*
X247023Y122108D01*
X247055Y122031D01*
X247094Y121958D01*
X247138Y121890D01*
X247188Y121826D01*
X247244Y121766D01*
X245866D01*
X245922Y121826D01*
X245972Y121890D01*
X246017Y121958D01*
X246055Y122031D01*
X246088Y122108D01*
X246114Y122189D01*
X246135Y122274D01*
X246150Y122364D01*
X246159Y122458D01*
X246161Y122556D01*
X246949D01*
X246952Y122458D01*
D02*
G37*
G36*
X199090Y120220D02*
X199154Y120169D01*
X199222Y120125D01*
X199295Y120087D01*
X199372Y120054D01*
X199453Y120027D01*
X199538Y120007D01*
X199628Y119992D01*
X199722Y119983D01*
X199819Y119980D01*
Y119193D01*
X199722Y119190D01*
X199628Y119181D01*
X199538Y119166D01*
X199453Y119146D01*
X199372Y119119D01*
X199295Y119087D01*
X199222Y119048D01*
X199154Y119004D01*
X199090Y118954D01*
X199030Y118898D01*
Y120276D01*
X199090Y120220D01*
D02*
G37*
G36*
X204200Y107225D02*
X204150Y107160D01*
X204105Y107092D01*
X204067Y107019D01*
X204035Y106942D01*
X204008Y106861D01*
X203987Y106776D01*
X203973Y106686D01*
X203964Y106593D01*
X203961Y106495D01*
X203173D01*
X203170Y106593D01*
X203162Y106686D01*
X203147Y106776D01*
X203126Y106861D01*
X203100Y106942D01*
X203067Y107019D01*
X203029Y107092D01*
X202984Y107160D01*
X202934Y107225D01*
X202878Y107284D01*
X204256D01*
X204200Y107225D01*
D02*
G37*
G36*
X238353Y95701D02*
X238426Y95641D01*
X238500Y95591D01*
X238575Y95548D01*
X238651Y95513D01*
X238728Y95487D01*
X238805Y95469D01*
X238884Y95459D01*
X238964Y95457D01*
X239044Y95464D01*
X238195Y94379D01*
X238183Y94460D01*
X238165Y94539D01*
X238140Y94618D01*
X238110Y94696D01*
X238073Y94772D01*
X238031Y94847D01*
X237982Y94921D01*
X237927Y94994D01*
X237866Y95066D01*
X237799Y95137D01*
X238281Y95768D01*
X238353Y95701D01*
D02*
G37*
G36*
X236280Y93534D02*
X236352Y93474D01*
X236426Y93421D01*
X236501Y93375D01*
X236577Y93337D01*
X236654Y93305D01*
X236733Y93281D01*
X236812Y93264D01*
X236893Y93254D01*
X236975Y93251D01*
X236001Y92277D01*
X235998Y92359D01*
X235988Y92440D01*
X235971Y92520D01*
X235947Y92598D01*
X235916Y92676D01*
X235877Y92752D01*
X235831Y92827D01*
X235779Y92900D01*
X235719Y92973D01*
X235651Y93044D01*
X236208Y93601D01*
X236280Y93534D01*
D02*
G37*
G36*
X173578Y90344D02*
X173511Y90273D01*
X173451Y90200D01*
X173398Y90126D01*
X173352Y90051D01*
X173314Y89975D01*
X173282Y89898D01*
X173258Y89820D01*
X173241Y89740D01*
X173231Y89659D01*
X173228Y89577D01*
X172254Y90551D01*
X172336Y90554D01*
X172417Y90564D01*
X172497Y90581D01*
X172575Y90605D01*
X172652Y90636D01*
X172729Y90675D01*
X172803Y90721D01*
X172877Y90774D01*
X172950Y90834D01*
X173021Y90901D01*
X173578Y90344D01*
D02*
G37*
G36*
X187289Y86417D02*
X187229Y86473D01*
X187165Y86524D01*
X187097Y86568D01*
X187024Y86606D01*
X186947Y86639D01*
X186866Y86665D01*
X186781Y86686D01*
X186691Y86701D01*
X186598Y86710D01*
X186500Y86713D01*
Y87500D01*
X186598Y87503D01*
X186691Y87512D01*
X186781Y87527D01*
X186866Y87547D01*
X186947Y87574D01*
X187024Y87606D01*
X187097Y87645D01*
X187165Y87689D01*
X187229Y87739D01*
X187289Y87795D01*
Y86417D01*
D02*
G37*
G36*
X179038Y83580D02*
X179047Y83486D01*
X179062Y83397D01*
X179083Y83311D01*
X179109Y83230D01*
X179142Y83153D01*
X179180Y83081D01*
X179224Y83012D01*
X179275Y82948D01*
X179331Y82888D01*
X177953D01*
X178009Y82948D01*
X178059Y83012D01*
X178103Y83081D01*
X178142Y83153D01*
X178174Y83230D01*
X178201Y83311D01*
X178221Y83397D01*
X178236Y83486D01*
X178245Y83580D01*
X178248Y83678D01*
X179035D01*
X179038Y83580D01*
D02*
G37*
G36*
X206964Y78389D02*
X207028Y78339D01*
X207096Y78294D01*
X207169Y78256D01*
X207246Y78223D01*
X207327Y78197D01*
X207412Y78176D01*
X207502Y78161D01*
X207595Y78153D01*
X207693Y78150D01*
Y77362D01*
X207595Y77359D01*
X207502Y77350D01*
X207412Y77336D01*
X207327Y77315D01*
X207246Y77288D01*
X207169Y77256D01*
X207096Y77218D01*
X207028Y77173D01*
X206964Y77123D01*
X206904Y77067D01*
Y78445D01*
X206964Y78389D01*
D02*
G37*
G36*
X205498Y77067D02*
X205438Y77123D01*
X205374Y77173D01*
X205305Y77218D01*
X205233Y77256D01*
X205156Y77288D01*
X205075Y77315D01*
X204989Y77336D01*
X204900Y77350D01*
X204806Y77359D01*
X204708Y77362D01*
Y78150D01*
X204806Y78153D01*
X204900Y78161D01*
X204989Y78176D01*
X205075Y78197D01*
X205156Y78223D01*
X205233Y78256D01*
X205305Y78294D01*
X205374Y78339D01*
X205438Y78389D01*
X205498Y78445D01*
Y77067D01*
D02*
G37*
G36*
X253234Y76083D02*
X253174Y76139D01*
X253110Y76189D01*
X253042Y76233D01*
X252969Y76272D01*
X252892Y76304D01*
X252811Y76331D01*
X252726Y76351D01*
X252636Y76366D01*
X252542Y76375D01*
X252444Y76378D01*
Y77165D01*
X252542Y77168D01*
X252636Y77177D01*
X252726Y77192D01*
X252811Y77213D01*
X252892Y77239D01*
X252969Y77272D01*
X253042Y77310D01*
X253110Y77354D01*
X253174Y77404D01*
X253234Y77461D01*
Y76083D01*
D02*
G37*
G36*
X231581Y75590D02*
X231521Y75647D01*
X231456Y75697D01*
X231388Y75741D01*
X231315Y75779D01*
X231238Y75812D01*
X231157Y75839D01*
X231072Y75859D01*
X230982Y75874D01*
X230889Y75883D01*
X230791Y75886D01*
Y76673D01*
X230889Y76676D01*
X230982Y76685D01*
X231072Y76700D01*
X231157Y76720D01*
X231238Y76747D01*
X231315Y76780D01*
X231388Y76818D01*
X231456Y76862D01*
X231521Y76912D01*
X231581Y76968D01*
Y75590D01*
D02*
G37*
G36*
X255906Y75249D02*
Y63656D01*
X253851Y61602D01*
X253523Y61111D01*
X253408Y60532D01*
X253408Y60531D01*
Y53436D01*
X253252Y53280D01*
X252953Y52557D01*
Y51774D01*
X253252Y51050D01*
X253806Y50497D01*
X254530Y50197D01*
X255313D01*
X255490Y50270D01*
X255906Y49992D01*
Y34884D01*
X253502Y32480D01*
X206321D01*
X206281Y32539D01*
Y33322D01*
X205981Y34046D01*
X205778Y34250D01*
X205734Y34319D01*
X205718Y34337D01*
X205717Y34340D01*
Y37392D01*
X216307Y47982D01*
X216612Y48437D01*
X216719Y48975D01*
Y51646D01*
X216719Y51649D01*
X216736Y51666D01*
X216773Y51727D01*
X216796Y51745D01*
X236300D01*
X236492Y51245D01*
X236221Y50588D01*
Y49805D01*
X236520Y49082D01*
X236724Y48878D01*
X236767Y48809D01*
X236783Y48791D01*
X236784Y48788D01*
Y44873D01*
X236576Y44665D01*
X236569Y44660D01*
X236548Y44646D01*
X236531Y44637D01*
X236518Y44630D01*
X236508Y44626D01*
X236500Y44623D01*
X236493Y44622D01*
X236452Y44615D01*
X236334D01*
X235611Y44316D01*
X235057Y43762D01*
X234758Y43038D01*
Y42255D01*
X235057Y41532D01*
X235611Y40978D01*
X236334Y40678D01*
X237118D01*
X237841Y40978D01*
X238395Y41532D01*
X238695Y42255D01*
Y42810D01*
X239182Y43298D01*
X239487Y43754D01*
X239594Y44291D01*
Y48788D01*
X239595Y48791D01*
X239611Y48809D01*
X239654Y48878D01*
X239858Y49082D01*
X240158Y49805D01*
Y50588D01*
X239886Y51245D01*
X240078Y51745D01*
X244587D01*
X245124Y51852D01*
X245580Y52156D01*
X249025Y55601D01*
X249329Y56057D01*
X249436Y56595D01*
Y74221D01*
X250582Y75367D01*
X252528D01*
X252531Y75366D01*
X252549Y75350D01*
X252618Y75306D01*
X252822Y75103D01*
X253545Y74803D01*
X254329D01*
X255052Y75103D01*
X255405Y75456D01*
X255906Y75249D01*
D02*
G37*
G36*
X128586Y67643D02*
X128535Y67578D01*
X128491Y67510D01*
X128453Y67437D01*
X128420Y67361D01*
X128394Y67279D01*
X128373Y67194D01*
X128358Y67105D01*
X128349Y67011D01*
X128347Y66913D01*
X127559D01*
X127556Y67011D01*
X127547Y67105D01*
X127532Y67194D01*
X127512Y67279D01*
X127485Y67361D01*
X127453Y67437D01*
X127414Y67510D01*
X127370Y67578D01*
X127320Y67643D01*
X127264Y67703D01*
X128642D01*
X128586Y67643D01*
D02*
G37*
G36*
X272880Y65470D02*
X272839Y65505D01*
X272791Y65538D01*
X272736Y65566D01*
X272673Y65591D01*
X272603Y65611D01*
X272526Y65628D01*
X272442Y65642D01*
X272350Y65651D01*
X272144Y65659D01*
Y66659D01*
X272251Y66660D01*
X272442Y66676D01*
X272526Y66689D01*
X272603Y66706D01*
X272673Y66727D01*
X272736Y66751D01*
X272791Y66780D01*
X272839Y66812D01*
X272880Y66848D01*
Y65470D01*
D02*
G37*
G36*
X125633Y66166D02*
X125583Y66102D01*
X125538Y66034D01*
X125500Y65961D01*
X125468Y65884D01*
X125441Y65803D01*
X125420Y65718D01*
X125406Y65628D01*
X125397Y65535D01*
X125394Y65437D01*
X124606D01*
X124603Y65535D01*
X124594Y65628D01*
X124580Y65718D01*
X124559Y65803D01*
X124532Y65884D01*
X124500Y65961D01*
X124462Y66034D01*
X124417Y66102D01*
X124367Y66166D01*
X124311Y66226D01*
X125689D01*
X125633Y66166D01*
D02*
G37*
G36*
X149385Y64117D02*
X149449Y64067D01*
X149518Y64023D01*
X149590Y63984D01*
X149667Y63952D01*
X149748Y63925D01*
X149834Y63905D01*
X149923Y63890D01*
X150017Y63881D01*
X150115Y63878D01*
Y63090D01*
X150017Y63088D01*
X149923Y63079D01*
X149834Y63064D01*
X149748Y63043D01*
X149667Y63017D01*
X149590Y62984D01*
X149518Y62946D01*
X149449Y62902D01*
X149385Y62851D01*
X149325Y62795D01*
Y64173D01*
X149385Y64117D01*
D02*
G37*
G36*
X264764Y58071D02*
Y56102D01*
X263779Y55118D01*
X257874D01*
X256890Y56102D01*
Y58071D01*
X257874Y59055D01*
X263779D01*
X264764Y58071D01*
D02*
G37*
G36*
X254459Y79202D02*
X254423Y79072D01*
X254214Y78740D01*
X253545D01*
X252822Y78440D01*
X252618Y78237D01*
X252549Y78193D01*
X252531Y78177D01*
X252528Y78177D01*
X250000D01*
X249462Y78070D01*
X249007Y77765D01*
X247038Y75797D01*
X246733Y75341D01*
X246626Y74803D01*
Y57176D01*
X244005Y54555D01*
X216660D01*
X216655Y54555D01*
X216634Y54560D01*
X216619Y54564D01*
X216609Y54568D01*
X216603Y54571D01*
X216599Y54573D01*
X216596Y54575D01*
X216562Y54601D01*
X216540Y54612D01*
X216429Y54724D01*
X215705Y55023D01*
X214922D01*
X214198Y54724D01*
X213645Y54170D01*
X213345Y53446D01*
Y52663D01*
X213645Y51940D01*
X213848Y51736D01*
X213892Y51666D01*
X213908Y51649D01*
X213909Y51646D01*
Y49557D01*
X203319Y38967D01*
X203015Y38512D01*
X202908Y37974D01*
Y34340D01*
X202907Y34337D01*
X202891Y34319D01*
X202847Y34250D01*
X202644Y34046D01*
X202344Y33322D01*
Y32539D01*
X202305Y32480D01*
X165354D01*
X161417Y36417D01*
Y52165D01*
X165335Y56083D01*
X202756D01*
X202853Y56102D01*
X203740D01*
X206693Y59055D01*
Y59942D01*
X206712Y60039D01*
Y69901D01*
X209626Y72815D01*
X231873D01*
X231970Y72835D01*
X235236D01*
X244075Y81674D01*
X251988Y81674D01*
X254459Y79202D01*
D02*
G37*
G36*
X255423Y53497D02*
X255438Y53306D01*
X255451Y53222D01*
X255469Y53145D01*
X255489Y53075D01*
X255514Y53012D01*
X255542Y52957D01*
X255574Y52909D01*
X255610Y52868D01*
X254232D01*
X254268Y52909D01*
X254300Y52957D01*
X254329Y53012D01*
X254353Y53075D01*
X254374Y53145D01*
X254391Y53222D01*
X254404Y53306D01*
X254414Y53398D01*
X254421Y53604D01*
X255421D01*
X255423Y53497D01*
D02*
G37*
G36*
X216012Y53758D02*
X216080Y53713D01*
X216152Y53673D01*
X216228Y53639D01*
X216307Y53610D01*
X216390Y53586D01*
X216477Y53567D01*
X216567Y53554D01*
X216661Y53546D01*
X216758Y53543D01*
X216842Y52756D01*
X216743Y52753D01*
X216650Y52743D01*
X216561Y52727D01*
X216478Y52705D01*
X216399Y52676D01*
X216325Y52641D01*
X216256Y52600D01*
X216193Y52552D01*
X216134Y52497D01*
X216080Y52437D01*
X215947Y53808D01*
X216012Y53758D01*
D02*
G37*
G36*
X215947Y52292D02*
X215896Y52227D01*
X215852Y52159D01*
X215814Y52087D01*
X215781Y52010D01*
X215755Y51929D01*
X215734Y51843D01*
X215719Y51754D01*
X215710Y51660D01*
X215707Y51562D01*
X214920D01*
X214917Y51660D01*
X214908Y51754D01*
X214893Y51843D01*
X214873Y51929D01*
X214846Y52010D01*
X214814Y52087D01*
X214775Y52159D01*
X214731Y52227D01*
X214681Y52292D01*
X214625Y52352D01*
X216003D01*
X215947Y52292D01*
D02*
G37*
G36*
X238822Y49434D02*
X238772Y49370D01*
X238727Y49301D01*
X238689Y49229D01*
X238656Y49152D01*
X238630Y49071D01*
X238609Y48985D01*
X238595Y48896D01*
X238586Y48802D01*
X238583Y48704D01*
X237795D01*
X237792Y48802D01*
X237784Y48896D01*
X237769Y48985D01*
X237748Y49071D01*
X237721Y49152D01*
X237689Y49229D01*
X237651Y49301D01*
X237606Y49370D01*
X237556Y49434D01*
X237500Y49494D01*
X238878D01*
X238822Y49434D01*
D02*
G37*
G36*
X153054Y45056D02*
X153063Y44962D01*
X153078Y44873D01*
X153098Y44787D01*
X153125Y44706D01*
X153157Y44630D01*
X153196Y44557D01*
X153240Y44488D01*
X153290Y44424D01*
X153347Y44364D01*
X151969D01*
X152025Y44424D01*
X152075Y44488D01*
X152119Y44557D01*
X152157Y44630D01*
X152190Y44706D01*
X152217Y44787D01*
X152237Y44873D01*
X152252Y44962D01*
X152261Y45056D01*
X152264Y45154D01*
X153051D01*
X153054Y45056D01*
D02*
G37*
G36*
X238001Y43547D02*
X237934Y43475D01*
X237875Y43402D01*
X237824Y43328D01*
X237781Y43253D01*
X237747Y43177D01*
X237721Y43101D01*
X237704Y43023D01*
X237694Y42945D01*
X237693Y42865D01*
X237701Y42785D01*
X236607Y43624D01*
X236688Y43637D01*
X236768Y43656D01*
X236846Y43681D01*
X236924Y43712D01*
X237000Y43748D01*
X237075Y43791D01*
X237149Y43840D01*
X237222Y43895D01*
X237294Y43957D01*
X237364Y44023D01*
X238001Y43547D01*
D02*
G37*
G36*
X153290Y42898D02*
X153240Y42834D01*
X153196Y42766D01*
X153157Y42693D01*
X153125Y42616D01*
X153098Y42535D01*
X153078Y42450D01*
X153063Y42360D01*
X153054Y42267D01*
X153051Y42169D01*
X152264D01*
X152261Y42267D01*
X152252Y42360D01*
X152237Y42450D01*
X152217Y42535D01*
X152190Y42616D01*
X152157Y42693D01*
X152119Y42766D01*
X152075Y42834D01*
X152025Y42898D01*
X151969Y42959D01*
X153347D01*
X153290Y42898D01*
D02*
G37*
G36*
X204709Y34326D02*
X204718Y34232D01*
X204733Y34142D01*
X204753Y34057D01*
X204780Y33976D01*
X204813Y33899D01*
X204851Y33826D01*
X204895Y33758D01*
X204945Y33694D01*
X205001Y33634D01*
X203624D01*
X203680Y33694D01*
X203730Y33758D01*
X203774Y33826D01*
X203813Y33899D01*
X203845Y33976D01*
X203872Y34057D01*
X203892Y34142D01*
X203907Y34232D01*
X203916Y34326D01*
X203919Y34424D01*
X204706D01*
X204709Y34326D01*
D02*
G37*
G36*
X118269Y14898D02*
X118333Y14848D01*
X118401Y14804D01*
X118474Y14765D01*
X118551Y14733D01*
X118632Y14706D01*
X118717Y14685D01*
X118807Y14671D01*
X118900Y14662D01*
X118998Y14659D01*
Y13871D01*
X118900Y13869D01*
X118807Y13860D01*
X118717Y13845D01*
X118632Y13824D01*
X118551Y13798D01*
X118474Y13765D01*
X118401Y13727D01*
X118333Y13683D01*
X118269Y13632D01*
X118209Y13576D01*
Y14954D01*
X118269Y14898D01*
D02*
G37*
%LPC*%
G36*
X207997Y54727D02*
X207214D01*
X206491Y54427D01*
X206148Y54085D01*
X206119Y54062D01*
X189961D01*
X189423Y53956D01*
X188967Y53651D01*
X185109Y49793D01*
X184805Y49337D01*
X184698Y48800D01*
Y37054D01*
X184697Y37050D01*
X184681Y37033D01*
X184638Y36964D01*
X184434Y36760D01*
X184134Y36036D01*
Y35253D01*
X184434Y34530D01*
X184988Y33976D01*
X185711Y33676D01*
X186494D01*
X187218Y33976D01*
X187772Y34530D01*
X188071Y35253D01*
Y36036D01*
X187772Y36760D01*
X187568Y36964D01*
X187525Y37033D01*
X187509Y37051D01*
X187508Y37054D01*
Y48218D01*
X190543Y51253D01*
X206264D01*
X206269Y51252D01*
X206291Y51247D01*
X206306Y51243D01*
X206317Y51239D01*
X206324Y51236D01*
X206329Y51233D01*
X206332Y51231D01*
X206367Y51205D01*
X206384Y51196D01*
X206491Y51090D01*
X207214Y50790D01*
X207997D01*
X208721Y51090D01*
X209275Y51643D01*
X209574Y52367D01*
Y53150D01*
X209275Y53873D01*
X208721Y54427D01*
X207997Y54727D01*
D02*
G37*
%LPD*%
G36*
X206977Y52001D02*
X206912Y52051D01*
X206843Y52096D01*
X206771Y52135D01*
X206695Y52169D01*
X206616Y52198D01*
X206533Y52222D01*
X206446Y52240D01*
X206356Y52253D01*
X206262Y52261D01*
X206164Y52264D01*
X206076Y53051D01*
X206174Y53054D01*
X206267Y53064D01*
X206356Y53080D01*
X206440Y53102D01*
X206518Y53131D01*
X206592Y53167D01*
X206660Y53208D01*
X206724Y53256D01*
X206782Y53311D01*
X206836Y53372D01*
X206977Y52001D01*
D02*
G37*
G36*
X186500Y37040D02*
X186508Y36946D01*
X186523Y36856D01*
X186544Y36771D01*
X186570Y36690D01*
X186603Y36613D01*
X186641Y36540D01*
X186686Y36472D01*
X186736Y36408D01*
X186792Y36348D01*
X185414D01*
X185470Y36408D01*
X185520Y36472D01*
X185564Y36540D01*
X185603Y36613D01*
X185635Y36690D01*
X185662Y36771D01*
X185683Y36856D01*
X185697Y36946D01*
X185706Y37040D01*
X185709Y37137D01*
X186497D01*
X186500Y37040D01*
D02*
G37*
G36*
X203730Y131890D02*
X203648Y131887D01*
X203567Y131877D01*
X203488Y131860D01*
X203409Y131836D01*
X203332Y131805D01*
X203256Y131766D01*
X203181Y131720D01*
X203107Y131667D01*
X203034Y131607D01*
X202963Y131540D01*
X202406Y132097D01*
X202473Y132168D01*
X202534Y132241D01*
X202586Y132315D01*
X202632Y132389D01*
X202671Y132466D01*
X202702Y132543D01*
X202726Y132622D01*
X202743Y132701D01*
X202753Y132782D01*
X202756Y132864D01*
X203730Y131890D01*
D02*
G37*
G36*
X191295Y124301D02*
X191227Y124229D01*
X191167Y124157D01*
X191114Y124083D01*
X191069Y124008D01*
X191030Y123932D01*
X190999Y123855D01*
X190975Y123776D01*
X190957Y123696D01*
X190948Y123616D01*
X190945Y123533D01*
X189971Y124508D01*
X190053Y124511D01*
X190134Y124521D01*
X190213Y124538D01*
X190292Y124562D01*
X190369Y124593D01*
X190445Y124632D01*
X190520Y124677D01*
X190594Y124730D01*
X190666Y124790D01*
X190738Y124857D01*
X191295Y124301D01*
D02*
G37*
G36*
X189951Y122539D02*
X189869Y122537D01*
X189788Y122527D01*
X189708Y122510D01*
X189630Y122485D01*
X189552Y122454D01*
X189476Y122415D01*
X189401Y122370D01*
X189328Y122317D01*
X189255Y122257D01*
X189184Y122190D01*
X188627Y122747D01*
X188694Y122818D01*
X188754Y122890D01*
X188807Y122964D01*
X188853Y123039D01*
X188891Y123115D01*
X188923Y123193D01*
X188947Y123271D01*
X188964Y123351D01*
X188974Y123432D01*
X188976Y123514D01*
X189951Y122539D01*
D02*
G37*
G36*
X159168Y85531D02*
X159177Y85437D01*
X159192Y85348D01*
X159213Y85263D01*
X159239Y85181D01*
X159272Y85105D01*
X159310Y85032D01*
X159354Y84964D01*
X159405Y84899D01*
X159461Y84839D01*
X158083D01*
X158139Y84899D01*
X158189Y84964D01*
X158233Y85032D01*
X158272Y85105D01*
X158304Y85181D01*
X158331Y85263D01*
X158352Y85348D01*
X158366Y85437D01*
X158375Y85531D01*
X158378Y85629D01*
X159166D01*
X159168Y85531D01*
D02*
G37*
D11*
X236985Y92267D02*
X236985Y92267D01*
X231235Y98018D02*
X236985Y92267D01*
X221864Y98018D02*
X231235D01*
X233688Y99805D02*
X238597Y94896D01*
X220868Y99805D02*
X233688D01*
X215551Y94488D02*
X220868Y99805D01*
X216367Y92520D02*
X221864Y98018D01*
X152657Y41496D02*
Y43661D01*
Y53248D02*
X177165Y77756D01*
X152657Y43661D02*
Y53248D01*
Y22244D02*
Y41496D01*
X144679Y14265D02*
X152657Y22244D01*
X127953Y64961D02*
Y68405D01*
Y64961D02*
X131890Y61024D01*
X153051D01*
X129921Y58563D02*
X154035D01*
X125000Y63484D02*
Y66929D01*
Y63484D02*
X129921Y58563D01*
X148622Y63484D02*
X152067D01*
X170242Y81659D01*
X153051Y61024D02*
X160679Y68652D01*
X215551Y53150D02*
X244587D01*
X248031Y56595D01*
Y74803D01*
X250000Y76772D01*
X253937D01*
X158772Y84136D02*
Y92335D01*
X167815Y101378D01*
X183071Y116634D02*
Y116634D01*
X167815Y101378D02*
X183071Y116634D01*
X246555Y121063D02*
Y130905D01*
X237756Y139704D02*
X246555Y130905D01*
X234976Y139704D02*
X237756D01*
X224902Y140748D02*
X229823Y135827D01*
X161909Y140748D02*
X224902D01*
X172244Y89567D02*
X182087Y99410D01*
X183071D01*
X197835D01*
X203567Y105142D01*
X170242Y84187D02*
X182512Y96457D01*
X170242Y81659D02*
Y84187D01*
X182512Y96457D02*
X198819D01*
X172244Y83661D02*
X183071Y94488D01*
X172244Y80216D02*
Y83661D01*
X183071Y94488D02*
X215551D01*
X174128Y78656D02*
Y82762D01*
X183886Y92520D02*
X216367D01*
X174128Y82762D02*
X183886Y92520D01*
X181595Y87106D02*
X187992D01*
X178642Y84153D02*
X181595Y87106D01*
X178642Y82185D02*
Y84153D01*
X177165Y77756D02*
X206201D01*
X160679Y68652D02*
X172244Y80216D01*
X154035Y58563D02*
X174128Y78656D01*
X117506Y14265D02*
X144679D01*
X228346Y76279D02*
X232283D01*
X226870Y77756D02*
X228346Y76279D01*
X206201Y77756D02*
X226870D01*
X189961Y123524D02*
X195374Y128937D01*
X199803D01*
X203740Y132874D01*
X183071Y116634D02*
X189961Y123524D01*
X236726Y42647D02*
X237205Y43125D01*
Y43307D01*
X238189Y44291D01*
Y50197D01*
X215314Y48975D02*
Y53055D01*
X204313Y32931D02*
Y37974D01*
X215314Y48975D01*
X119095Y152559D02*
X225886D01*
X112205Y145669D02*
X119095Y152559D01*
X112205Y138779D02*
Y145669D01*
X203567Y105142D02*
Y107987D01*
X198819Y96457D02*
X206693Y104331D01*
X200295Y119587D02*
X206693Y113189D01*
Y104331D02*
Y113189D01*
X189961Y52658D02*
X207606D01*
X198327Y119587D02*
X200295D01*
X186103Y35645D02*
Y48800D01*
X189961Y52658D01*
D13*
X254921Y52165D02*
Y60532D01*
X260548Y66159D01*
X273583D01*
X48337Y10842D02*
X42339D01*
Y13841D01*
X43338Y14841D01*
X44338D01*
X45338Y13841D01*
Y10842D01*
Y13841D01*
X46337Y14841D01*
X47337D01*
X48337Y13841D01*
Y10842D01*
Y19840D02*
Y17840D01*
X47337Y16841D01*
X43338D01*
X42339Y17840D01*
Y19840D01*
X43338Y20839D01*
X47337D01*
X48337Y19840D01*
Y22839D02*
Y26837D01*
Y24838D01*
X42339D01*
D107*
X271176Y112682D02*
X279288D01*
X133858Y145669D02*
X238189D01*
X271176Y112682D01*
X35433Y3937D02*
X318898D01*
X334646Y19685D01*
X19685D02*
X35433Y3937D01*
X70866Y158465D02*
X94488Y134843D01*
X52165Y158465D02*
X70866D01*
X94488Y134843D02*
X123031D01*
X133858Y145669D01*
X350394Y35433D02*
Y161417D01*
X334646Y19685D02*
X350394Y35433D01*
X334646Y177165D02*
X350394Y161417D01*
X318898Y192913D02*
X334646Y177165D01*
X35433Y192913D02*
X318898D01*
X19685Y177165D02*
X35433Y192913D01*
X3937Y35433D02*
X19685Y19685D01*
X3937Y35433D02*
Y161417D01*
X19685Y177165D01*
D109*
X287402Y25256D02*
D03*
D110*
Y15256D02*
D03*
D111*
X23622Y68898D02*
D03*
X330709Y112205D02*
D03*
D112*
X23622Y82677D02*
D03*
Y96457D02*
D03*
Y110236D02*
D03*
X330709Y70866D02*
D03*
Y84646D02*
D03*
Y98425D02*
D03*
D113*
X334646Y177165D02*
D03*
Y19685D02*
D03*
X19685Y177165D02*
D03*
Y19685D02*
D03*
D114*
X208661Y68898D02*
D03*
Y65945D02*
D03*
X107283Y71850D02*
D03*
Y74803D02*
D03*
Y77756D02*
D03*
X121063Y102362D02*
D03*
X117126D02*
D03*
X113189D02*
D03*
X129921Y98425D02*
D03*
Y93504D02*
D03*
X140748Y71850D02*
D03*
X136811D02*
D03*
X148622Y27559D02*
D03*
Y32480D02*
D03*
Y37402D02*
D03*
X162402Y59055D02*
D03*
X128937Y43307D02*
D03*
X121063D02*
D03*
X91535Y67913D02*
D03*
Y69882D02*
D03*
X57087Y94488D02*
D03*
X261811Y57087D02*
D03*
X342520Y55118D02*
D03*
Y51181D02*
D03*
Y47244D02*
D03*
X239173Y94488D02*
D03*
X215551Y88583D02*
D03*
X54134Y156496D02*
D03*
Y159449D02*
D03*
X51181Y156496D02*
D03*
Y159449D02*
D03*
X278543Y112205D02*
D03*
Y114173D02*
D03*
X276575Y112205D02*
D03*
Y114173D02*
D03*
X53150Y90551D02*
D03*
X57087Y86614D02*
D03*
X314961Y118110D02*
D03*
Y129921D02*
D03*
Y141732D02*
D03*
Y153543D02*
D03*
X279528Y145669D02*
D03*
Y157480D02*
D03*
Y169291D02*
D03*
X224410Y185039D02*
D03*
X212598D02*
D03*
X94488D02*
D03*
X78740D02*
D03*
X59055D02*
D03*
X43307D02*
D03*
X271654Y11811D02*
D03*
Y19685D02*
D03*
X161417Y7874D02*
D03*
X153543D02*
D03*
X110236D02*
D03*
X102362D02*
D03*
X66929D02*
D03*
X59055D02*
D03*
X47244Y31496D02*
D03*
Y43307D02*
D03*
X39370D02*
D03*
X23622D02*
D03*
X7874D02*
D03*
Y51181D02*
D03*
Y74803D02*
D03*
Y94488D02*
D03*
Y114173D02*
D03*
Y133858D02*
D03*
Y153543D02*
D03*
X116142Y180118D02*
D03*
X112205D02*
D03*
X108268D02*
D03*
X85630Y159449D02*
D03*
X81693D02*
D03*
X133858Y138779D02*
D03*
X120079D02*
D03*
X105315D02*
D03*
X98425D02*
D03*
X109252Y156496D02*
D03*
X105315D02*
D03*
X305118Y23622D02*
D03*
X301181D02*
D03*
X297244D02*
D03*
X188976Y25591D02*
D03*
Y13780D02*
D03*
X316929Y55118D02*
D03*
X320866D02*
D03*
X338583D02*
D03*
X334646D02*
D03*
X342520Y43307D02*
D03*
Y59055D02*
D03*
Y70866D02*
D03*
Y82677D02*
D03*
Y94488D02*
D03*
Y106299D02*
D03*
Y118110D02*
D03*
Y129921D02*
D03*
Y141732D02*
D03*
Y153543D02*
D03*
X67913Y70374D02*
D03*
Y66929D02*
D03*
Y63976D02*
D03*
X56102D02*
D03*
Y67421D02*
D03*
Y70866D02*
D03*
X238189Y85138D02*
D03*
X236221Y87106D02*
D03*
X210630Y106791D02*
D03*
X221949D02*
D03*
X215551Y110728D02*
D03*
Y102854D02*
D03*
X183071Y108268D02*
D03*
X181102Y110728D02*
D03*
X172736Y119095D02*
D03*
X170276Y122047D02*
D03*
X167815Y125492D02*
D03*
X165354Y129429D02*
D03*
X168307Y131890D02*
D03*
X170768Y134350D02*
D03*
X173721Y136811D02*
D03*
X196358Y135827D02*
D03*
X197835Y137795D02*
D03*
X217028Y133858D02*
D03*
Y136811D02*
D03*
X278051Y86122D02*
D03*
Y91043D02*
D03*
Y95965D02*
D03*
X289862Y85630D02*
D03*
Y91043D02*
D03*
Y95472D02*
D03*
X152657Y43661D02*
D03*
X127953Y68405D02*
D03*
X158957Y73819D02*
D03*
X148622Y63484D02*
D03*
X273583Y66159D02*
D03*
X259350Y57087D02*
D03*
X254921Y52165D02*
D03*
X253937Y76772D02*
D03*
X236221Y23622D02*
D03*
X232776D02*
D03*
X250000Y27559D02*
D03*
X229823Y135827D02*
D03*
X161909Y140748D02*
D03*
X197343Y67913D02*
D03*
X193898D02*
D03*
X226870Y50197D02*
D03*
X223917Y63484D02*
D03*
Y65945D02*
D03*
X172244Y89567D02*
D03*
X178642Y82185D02*
D03*
X234976Y139704D02*
D03*
X246555Y121063D02*
D03*
X174705Y70866D02*
D03*
X203740Y132874D02*
D03*
X206201Y77756D02*
D03*
X158772Y84136D02*
D03*
X117506Y14265D02*
D03*
X275098Y152559D02*
D03*
Y155020D02*
D03*
X125000Y38386D02*
D03*
X236726Y42647D02*
D03*
X238189Y50197D02*
D03*
X240158Y69882D02*
D03*
X215314Y53055D02*
D03*
X244094Y151575D02*
D03*
X112205Y138779D02*
D03*
X71850Y141732D02*
D03*
X173228Y68898D02*
D03*
X203567Y107987D02*
D03*
X207606Y52758D02*
D03*
X204313Y32931D02*
D03*
X189961Y33465D02*
D03*
Y35433D02*
D03*
X208661Y62992D02*
D03*
Y60039D02*
D03*
Y57087D02*
D03*
X240158Y72835D02*
D03*
X169291Y51181D02*
D03*
X166339D02*
D03*
X163386D02*
D03*
X198327Y119587D02*
D03*
X236985Y92267D02*
D03*
X125000Y66929D02*
D03*
X232283Y76279D02*
D03*
X186103Y35645D02*
D03*
X187992Y87106D02*
D03*
X189961Y123524D02*
D03*
X115157Y165354D02*
D03*
Y173228D02*
D03*
X109252D02*
D03*
Y165354D02*
D03*
X83169Y4921D02*
D03*
Y6890D02*
D03*
X118125Y70975D02*
D03*
X225886Y152559D02*
D03*
X244094Y154035D02*
D03*
Y156496D02*
D03*
X242126Y159449D02*
D03*
Y161909D02*
D03*
Y164370D02*
D03*
X266732Y148130D02*
D03*
X264764D02*
D03*
X262795D02*
D03*
X235236Y164370D02*
D03*
Y166339D02*
D03*
Y168307D02*
D03*
X223425Y166339D02*
D03*
X220472D02*
D03*
X216535Y167323D02*
D03*
X213583D02*
D03*
X189961Y183071D02*
D03*
Y178150D02*
D03*
Y174213D02*
D03*
X203740D02*
D03*
Y178150D02*
D03*
Y183071D02*
D03*
X34449Y151575D02*
D03*
Y148622D02*
D03*
Y145669D02*
D03*
X24606D02*
D03*
Y148622D02*
D03*
Y151575D02*
D03*
X57087Y121063D02*
D03*
Y117126D02*
D03*
Y113189D02*
D03*
X66929D02*
D03*
Y117126D02*
D03*
Y121063D02*
D03*
X71850Y137795D02*
D03*
Y133858D02*
D03*
X62008D02*
D03*
Y137795D02*
D03*
Y141732D02*
D03*
X142717Y163386D02*
D03*
Y168307D02*
D03*
X137795D02*
D03*
X133858D02*
D03*
X127953Y169291D02*
D03*
Y172244D02*
D03*
M02*
