M48
;Layer_Color=9474304
;FILE_FORMAT=2:5
INCH,LZ
;TYPE=PLATED
T1F00S00C0.00787
T2F00S00C0.00984
T3F00S00C0.03000
T4F00S00C0.03543
T5F00S00C0.15748
%
T01
X0109252Y0165354
X0115157
Y0173228
X0109252
T02
X0007874Y0043307
Y0051181
X0023622Y0043307
X003937
X0047244
Y0031496
X0059055Y0007874
X0066929
X0083169Y000689
Y0004921
X0102362Y0007874
X0110236
X0117506Y0014265
X0125Y0038386
X0128937Y0043307
X0121063
X0152657Y0043661
X0148622Y0037402
Y003248
Y0027559
X0153543Y0007874
X0161417
X0188976Y001378
Y0025591
X0189961Y0033465
Y0035433
X0186103Y0035645
X0204313Y0032931
X0207606Y0052758
X0169291Y0051181
X0166339
X0163386
X0215314Y0053055
X022687Y0050197
X0238189
X0236726Y0042647
X0236221Y0023622
X0232776
X025Y0027559
X0254921Y0052165
X0271654Y0019685
Y0011811
X0297244Y0023622
X0301181
X0305118
X0316929Y0055118
X0320866
X0334646
X0338583
X034252
Y0051181
Y0047244
Y0043307
Y0059055
Y0070866
Y0082677
Y0094488
Y0106299
Y011811
Y0129921
Y0141732
Y0153543
X0314961
Y0141732
Y0129921
Y011811
X0278543Y0114173
Y0112205
X0276575
Y0114173
X0278051Y0095965
Y0091043
Y0086122
X0289862Y008563
Y0091043
Y0095472
X0273583Y0066159
X0261811Y0057087
X025935
X0253937Y0076772
X0240158Y0072835
Y0069882
X0232283Y0076279
X0236221Y0087106
X0238189Y0085138
X0236985Y0092267
X0239173Y0094488
X0215551Y0088583
Y0102854
Y0110728
X0221949Y0106791
X0217028Y0133858
Y0136811
X0229823Y0135827
X0234976Y0139704
X0244094Y0151575
Y0154035
Y0156496
X0242126Y0159449
Y0161909
Y016437
X0235236
Y0166339
Y0168307
X0223425Y0166339
X0220472
X0216535Y0167323
X0213583
X0225886Y0152559
X022441Y0185039
X0279528Y0169291
Y015748
X0275098Y015502
Y0152559
X0279528Y0145669
X0266732Y014813
X0264764
X0262795
X0246555Y0121063
X0223917Y0065945
Y0063484
X0208661Y0062992
Y0065945
Y0068898
Y0060039
Y0057087
X0197343Y0067913
X0193898
X0173228Y0068898
X0174705Y0070866
X0178642Y0082185
X0172244Y0089567
X0187992Y0087106
X0183071Y0108268
X0181102Y0110728
X0172736Y0119095
X0170276Y0122047
X0167815Y0125492
X0165354Y0129429
X0168307Y013189
X0170768Y013435
X0173721Y0136811
X0161909Y0140748
X0133858Y0138779
X0120079
X0112205
X0105315
X0098425
X0105315Y0156496
X0109252
X0108268Y0180118
X0112205
X0116142
X0127953Y0172244
Y0169291
X0133858Y0168307
X0137795
X0142717
Y0163386
X0189961Y0174213
Y017815
Y0183071
X020374
Y017815
Y0174213
X0212598Y0185039
X020374Y0132874
X0196358Y0135827
X0197835Y0137795
X0198327Y0119587
X0189961Y0123524
X0203567Y0107987
X021063Y0106791
X0206201Y0077756
X0158957Y0073819
X0158772Y0084136
X0162402Y0059055
X0148622Y0063484
X0140748Y007185
X0136811
X0127953Y0068405
X0125Y0066929
X0118125Y0070975
X0107283Y007185
Y0074803
Y0077756
X0091535Y0069882
Y0067913
X0067913Y0066929
Y0063976
Y0070374
X0057087Y0086614
Y0094488
Y0113189
Y0117126
Y0121063
X0066929
Y0117126
Y0113189
X007185Y0133858
Y0137795
Y0141732
X0062008
Y0137795
Y0133858
X0081693Y0159449
X008563
X007874Y0185039
X0094488
X0059055
X0113189Y0102362
X0117126
X0121063
X0129921Y0098425
Y0093504
X005315Y0090551
X0056102Y0070866
Y0067421
Y0063976
X0007874Y0074803
Y0094488
Y0114173
Y0133858
Y0153543
X0024606Y0151575
Y0148622
Y0145669
X0034449
Y0148622
Y0151575
X0051181Y0156496
X0054134
Y0159449
X0051181
X0043307Y0185039
T03
X0287402Y0015256
T04
X0287402Y0025256
X0330709Y0070866
Y0084646
Y0098425
Y0112205
X0023622Y0110236
Y0096457
Y0082677
Y0068898
T05
X0019685Y0019685
X0334646
Y0177165
X0019685
M30
