G04*
G04 #@! TF.GenerationSoftware,Altium Limited,Altium Designer,21.4.1 (30)*
G04*
G04 Layer_Color=2752767*
%FSLAX25Y25*%
%MOIN*%
G70*
G04*
G04 #@! TF.SameCoordinates,5F1AA903-488D-4DD6-8C3F-381C7BA84995*
G04*
G04*
G04 #@! TF.FilePolarity,Positive*
G04*
G01*
G75*
%ADD115C,0.00200*%
%ADD116C,0.00267*%
D115*
X286602Y24456D02*
Y26056D01*
X288202D01*
Y24456D01*
X286602D01*
X22822Y68098D02*
Y69698D01*
X24422D01*
Y68098D01*
X22822D01*
Y81877D02*
Y83477D01*
X24422D01*
Y81877D01*
X22822D01*
Y95657D02*
Y97257D01*
X24422D01*
Y95657D01*
X22822D01*
Y109436D02*
Y111036D01*
X24422D01*
Y109436D01*
X22822D01*
X329909Y70066D02*
Y71666D01*
X331509D01*
Y70066D01*
X329909D01*
Y83846D02*
Y85446D01*
X331509D01*
Y83846D01*
X329909D01*
Y97625D02*
Y99225D01*
X331509D01*
Y97625D01*
X329909D01*
Y111405D02*
Y113005D01*
X331509D01*
Y111405D01*
X329909D01*
X334646Y176365D02*
X333846Y177965D01*
X335446D01*
X334646Y176365D01*
Y18885D02*
X333846Y20485D01*
X335446D01*
X334646Y18885D01*
X19685Y176365D02*
X18885Y177965D01*
X20485D01*
X19685Y176365D01*
Y18885D02*
X18885Y20485D01*
X20485D01*
X19685Y18885D01*
X208661Y68098D02*
X209061Y68498D01*
X209461D01*
X209061Y68898D01*
X209461Y69298D01*
X209061D01*
X208661Y69698D01*
X208261Y69298D01*
X207861D01*
X208261Y68898D01*
X207861Y68498D01*
X208261D01*
X208661Y68098D01*
Y65145D02*
X209061Y65545D01*
X209461D01*
X209061Y65945D01*
X209461Y66345D01*
X209061D01*
X208661Y66745D01*
X208261Y66345D01*
X207861D01*
X208261Y65945D01*
X207861Y65545D01*
X208261D01*
X208661Y65145D01*
X107283Y71050D02*
X107684Y71450D01*
X108083D01*
X107684Y71850D01*
X108083Y72250D01*
X107684D01*
X107283Y72650D01*
X106884Y72250D01*
X106483D01*
X106884Y71850D01*
X106483Y71450D01*
X106884D01*
X107283Y71050D01*
Y74003D02*
X107684Y74403D01*
X108083D01*
X107684Y74803D01*
X108083Y75203D01*
X107684D01*
X107283Y75603D01*
X106884Y75203D01*
X106483D01*
X106884Y74803D01*
X106483Y74403D01*
X106884D01*
X107283Y74003D01*
Y76956D02*
X107684Y77356D01*
X108083D01*
X107684Y77756D01*
X108083Y78156D01*
X107684D01*
X107283Y78556D01*
X106884Y78156D01*
X106483D01*
X106884Y77756D01*
X106483Y77356D01*
X106884D01*
X107283Y76956D01*
X121063Y101562D02*
X121463Y101962D01*
X121863D01*
X121463Y102362D01*
X121863Y102762D01*
X121463D01*
X121063Y103162D01*
X120663Y102762D01*
X120263D01*
X120663Y102362D01*
X120263Y101962D01*
X120663D01*
X121063Y101562D01*
X117126D02*
X117526Y101962D01*
X117926D01*
X117526Y102362D01*
X117926Y102762D01*
X117526D01*
X117126Y103162D01*
X116726Y102762D01*
X116326D01*
X116726Y102362D01*
X116326Y101962D01*
X116726D01*
X117126Y101562D01*
X113189D02*
X113589Y101962D01*
X113989D01*
X113589Y102362D01*
X113989Y102762D01*
X113589D01*
X113189Y103162D01*
X112789Y102762D01*
X112389D01*
X112789Y102362D01*
X112389Y101962D01*
X112789D01*
X113189Y101562D01*
X129921Y97625D02*
X130321Y98025D01*
X130721D01*
X130321Y98425D01*
X130721Y98825D01*
X130321D01*
X129921Y99225D01*
X129521Y98825D01*
X129121D01*
X129521Y98425D01*
X129121Y98025D01*
X129521D01*
X129921Y97625D01*
Y92704D02*
X130321Y93104D01*
X130721D01*
X130321Y93504D01*
X130721Y93904D01*
X130321D01*
X129921Y94304D01*
X129521Y93904D01*
X129121D01*
X129521Y93504D01*
X129121Y93104D01*
X129521D01*
X129921Y92704D01*
X140748Y71050D02*
X141148Y71450D01*
X141548D01*
X141148Y71850D01*
X141548Y72250D01*
X141148D01*
X140748Y72650D01*
X140348Y72250D01*
X139948D01*
X140348Y71850D01*
X139948Y71450D01*
X140348D01*
X140748Y71050D01*
X136811D02*
X137211Y71450D01*
X137611D01*
X137211Y71850D01*
X137611Y72250D01*
X137211D01*
X136811Y72650D01*
X136411Y72250D01*
X136011D01*
X136411Y71850D01*
X136011Y71450D01*
X136411D01*
X136811Y71050D01*
X148622Y26759D02*
X149022Y27159D01*
X149422D01*
X149022Y27559D01*
X149422Y27959D01*
X149022D01*
X148622Y28359D01*
X148222Y27959D01*
X147822D01*
X148222Y27559D01*
X147822Y27159D01*
X148222D01*
X148622Y26759D01*
Y31680D02*
X149022Y32080D01*
X149422D01*
X149022Y32480D01*
X149422Y32880D01*
X149022D01*
X148622Y33280D01*
X148222Y32880D01*
X147822D01*
X148222Y32480D01*
X147822Y32080D01*
X148222D01*
X148622Y31680D01*
Y36602D02*
X149022Y37002D01*
X149422D01*
X149022Y37402D01*
X149422Y37802D01*
X149022D01*
X148622Y38202D01*
X148222Y37802D01*
X147822D01*
X148222Y37402D01*
X147822Y37002D01*
X148222D01*
X148622Y36602D01*
X162402Y58255D02*
X162802Y58655D01*
X163202D01*
X162802Y59055D01*
X163202Y59455D01*
X162802D01*
X162402Y59855D01*
X162002Y59455D01*
X161602D01*
X162002Y59055D01*
X161602Y58655D01*
X162002D01*
X162402Y58255D01*
X128937Y42507D02*
X129337Y42907D01*
X129737D01*
X129337Y43307D01*
X129737Y43707D01*
X129337D01*
X128937Y44107D01*
X128537Y43707D01*
X128137D01*
X128537Y43307D01*
X128137Y42907D01*
X128537D01*
X128937Y42507D01*
X121063D02*
X121463Y42907D01*
X121863D01*
X121463Y43307D01*
X121863Y43707D01*
X121463D01*
X121063Y44107D01*
X120663Y43707D01*
X120263D01*
X120663Y43307D01*
X120263Y42907D01*
X120663D01*
X121063Y42507D01*
X91535Y67113D02*
X91935Y67513D01*
X92335D01*
X91935Y67913D01*
X92335Y68313D01*
X91935D01*
X91535Y68713D01*
X91135Y68313D01*
X90735D01*
X91135Y67913D01*
X90735Y67513D01*
X91135D01*
X91535Y67113D01*
Y69082D02*
X91935Y69482D01*
X92335D01*
X91935Y69882D01*
X92335Y70282D01*
X91935D01*
X91535Y70682D01*
X91135Y70282D01*
X90735D01*
X91135Y69882D01*
X90735Y69482D01*
X91135D01*
X91535Y69082D01*
X57087Y93688D02*
X57487Y94088D01*
X57887D01*
X57487Y94488D01*
X57887Y94888D01*
X57487D01*
X57087Y95288D01*
X56687Y94888D01*
X56287D01*
X56687Y94488D01*
X56287Y94088D01*
X56687D01*
X57087Y93688D01*
X261811Y56287D02*
X262211Y56687D01*
X262611D01*
X262211Y57087D01*
X262611Y57487D01*
X262211D01*
X261811Y57887D01*
X261411Y57487D01*
X261011D01*
X261411Y57087D01*
X261011Y56687D01*
X261411D01*
X261811Y56287D01*
X342520Y54318D02*
X342920Y54718D01*
X343320D01*
X342920Y55118D01*
X343320Y55518D01*
X342920D01*
X342520Y55918D01*
X342120Y55518D01*
X341720D01*
X342120Y55118D01*
X341720Y54718D01*
X342120D01*
X342520Y54318D01*
Y50381D02*
X342920Y50781D01*
X343320D01*
X342920Y51181D01*
X343320Y51581D01*
X342920D01*
X342520Y51981D01*
X342120Y51581D01*
X341720D01*
X342120Y51181D01*
X341720Y50781D01*
X342120D01*
X342520Y50381D01*
Y46444D02*
X342920Y46844D01*
X343320D01*
X342920Y47244D01*
X343320Y47644D01*
X342920D01*
X342520Y48044D01*
X342120Y47644D01*
X341720D01*
X342120Y47244D01*
X341720Y46844D01*
X342120D01*
X342520Y46444D01*
X239173Y93688D02*
X239573Y94088D01*
X239973D01*
X239573Y94488D01*
X239973Y94888D01*
X239573D01*
X239173Y95288D01*
X238773Y94888D01*
X238373D01*
X238773Y94488D01*
X238373Y94088D01*
X238773D01*
X239173Y93688D01*
X215551Y87783D02*
X215951Y88183D01*
X216351D01*
X215951Y88583D01*
X216351Y88983D01*
X215951D01*
X215551Y89383D01*
X215151Y88983D01*
X214751D01*
X215151Y88583D01*
X214751Y88183D01*
X215151D01*
X215551Y87783D01*
X54134Y155696D02*
X54534Y156096D01*
X54934D01*
X54534Y156496D01*
X54934Y156896D01*
X54534D01*
X54134Y157296D01*
X53734Y156896D01*
X53334D01*
X53734Y156496D01*
X53334Y156096D01*
X53734D01*
X54134Y155696D01*
Y158649D02*
X54534Y159049D01*
X54934D01*
X54534Y159449D01*
X54934Y159849D01*
X54534D01*
X54134Y160249D01*
X53734Y159849D01*
X53334D01*
X53734Y159449D01*
X53334Y159049D01*
X53734D01*
X54134Y158649D01*
X51181Y155696D02*
X51581Y156096D01*
X51981D01*
X51581Y156496D01*
X51981Y156896D01*
X51581D01*
X51181Y157296D01*
X50781Y156896D01*
X50381D01*
X50781Y156496D01*
X50381Y156096D01*
X50781D01*
X51181Y155696D01*
Y158649D02*
X51581Y159049D01*
X51981D01*
X51581Y159449D01*
X51981Y159849D01*
X51581D01*
X51181Y160249D01*
X50781Y159849D01*
X50381D01*
X50781Y159449D01*
X50381Y159049D01*
X50781D01*
X51181Y158649D01*
X278543Y111405D02*
X278943Y111805D01*
X279343D01*
X278943Y112205D01*
X279343Y112605D01*
X278943D01*
X278543Y113005D01*
X278143Y112605D01*
X277743D01*
X278143Y112205D01*
X277743Y111805D01*
X278143D01*
X278543Y111405D01*
Y113373D02*
X278943Y113773D01*
X279343D01*
X278943Y114173D01*
X279343Y114573D01*
X278943D01*
X278543Y114973D01*
X278143Y114573D01*
X277743D01*
X278143Y114173D01*
X277743Y113773D01*
X278143D01*
X278543Y113373D01*
X276575Y111405D02*
X276975Y111805D01*
X277375D01*
X276975Y112205D01*
X277375Y112605D01*
X276975D01*
X276575Y113005D01*
X276175Y112605D01*
X275775D01*
X276175Y112205D01*
X275775Y111805D01*
X276175D01*
X276575Y111405D01*
Y113373D02*
X276975Y113773D01*
X277375D01*
X276975Y114173D01*
X277375Y114573D01*
X276975D01*
X276575Y114973D01*
X276175Y114573D01*
X275775D01*
X276175Y114173D01*
X275775Y113773D01*
X276175D01*
X276575Y113373D01*
X53150Y89751D02*
X53550Y90151D01*
X53950D01*
X53550Y90551D01*
X53950Y90951D01*
X53550D01*
X53150Y91351D01*
X52750Y90951D01*
X52350D01*
X52750Y90551D01*
X52350Y90151D01*
X52750D01*
X53150Y89751D01*
X57087Y85814D02*
X57487Y86214D01*
X57887D01*
X57487Y86614D01*
X57887Y87014D01*
X57487D01*
X57087Y87414D01*
X56687Y87014D01*
X56287D01*
X56687Y86614D01*
X56287Y86214D01*
X56687D01*
X57087Y85814D01*
X314961Y117310D02*
X315361Y117710D01*
X315761D01*
X315361Y118110D01*
X315761Y118510D01*
X315361D01*
X314961Y118910D01*
X314561Y118510D01*
X314161D01*
X314561Y118110D01*
X314161Y117710D01*
X314561D01*
X314961Y117310D01*
Y129121D02*
X315361Y129521D01*
X315761D01*
X315361Y129921D01*
X315761Y130321D01*
X315361D01*
X314961Y130721D01*
X314561Y130321D01*
X314161D01*
X314561Y129921D01*
X314161Y129521D01*
X314561D01*
X314961Y129121D01*
Y140932D02*
X315361Y141332D01*
X315761D01*
X315361Y141732D01*
X315761Y142132D01*
X315361D01*
X314961Y142532D01*
X314561Y142132D01*
X314161D01*
X314561Y141732D01*
X314161Y141332D01*
X314561D01*
X314961Y140932D01*
Y152743D02*
X315361Y153143D01*
X315761D01*
X315361Y153543D01*
X315761Y153943D01*
X315361D01*
X314961Y154343D01*
X314561Y153943D01*
X314161D01*
X314561Y153543D01*
X314161Y153143D01*
X314561D01*
X314961Y152743D01*
X279528Y144869D02*
X279928Y145269D01*
X280328D01*
X279928Y145669D01*
X280328Y146069D01*
X279928D01*
X279528Y146469D01*
X279128Y146069D01*
X278728D01*
X279128Y145669D01*
X278728Y145269D01*
X279128D01*
X279528Y144869D01*
Y156680D02*
X279928Y157080D01*
X280328D01*
X279928Y157480D01*
X280328Y157880D01*
X279928D01*
X279528Y158280D01*
X279128Y157880D01*
X278728D01*
X279128Y157480D01*
X278728Y157080D01*
X279128D01*
X279528Y156680D01*
Y168491D02*
X279928Y168891D01*
X280328D01*
X279928Y169291D01*
X280328Y169691D01*
X279928D01*
X279528Y170091D01*
X279128Y169691D01*
X278728D01*
X279128Y169291D01*
X278728Y168891D01*
X279128D01*
X279528Y168491D01*
X224410Y184239D02*
X224810Y184639D01*
X225209D01*
X224810Y185039D01*
X225209Y185439D01*
X224810D01*
X224410Y185839D01*
X224009Y185439D01*
X223609D01*
X224009Y185039D01*
X223609Y184639D01*
X224009D01*
X224410Y184239D01*
X212598D02*
X212998Y184639D01*
X213398D01*
X212998Y185039D01*
X213398Y185439D01*
X212998D01*
X212598Y185839D01*
X212198Y185439D01*
X211798D01*
X212198Y185039D01*
X211798Y184639D01*
X212198D01*
X212598Y184239D01*
X94488D02*
X94888Y184639D01*
X95288D01*
X94888Y185039D01*
X95288Y185439D01*
X94888D01*
X94488Y185839D01*
X94088Y185439D01*
X93688D01*
X94088Y185039D01*
X93688Y184639D01*
X94088D01*
X94488Y184239D01*
X78740D02*
X79140Y184639D01*
X79540D01*
X79140Y185039D01*
X79540Y185439D01*
X79140D01*
X78740Y185839D01*
X78340Y185439D01*
X77940D01*
X78340Y185039D01*
X77940Y184639D01*
X78340D01*
X78740Y184239D01*
X59055D02*
X59455Y184639D01*
X59855D01*
X59455Y185039D01*
X59855Y185439D01*
X59455D01*
X59055Y185839D01*
X58655Y185439D01*
X58255D01*
X58655Y185039D01*
X58255Y184639D01*
X58655D01*
X59055Y184239D01*
X43307D02*
X43707Y184639D01*
X44107D01*
X43707Y185039D01*
X44107Y185439D01*
X43707D01*
X43307Y185839D01*
X42907Y185439D01*
X42507D01*
X42907Y185039D01*
X42507Y184639D01*
X42907D01*
X43307Y184239D01*
X271654Y11011D02*
X272054Y11411D01*
X272453D01*
X272054Y11811D01*
X272453Y12211D01*
X272054D01*
X271654Y12611D01*
X271253Y12211D01*
X270853D01*
X271253Y11811D01*
X270853Y11411D01*
X271253D01*
X271654Y11011D01*
Y18885D02*
X272054Y19285D01*
X272453D01*
X272054Y19685D01*
X272453Y20085D01*
X272054D01*
X271654Y20485D01*
X271253Y20085D01*
X270853D01*
X271253Y19685D01*
X270853Y19285D01*
X271253D01*
X271654Y18885D01*
X161417Y7074D02*
X161817Y7474D01*
X162217D01*
X161817Y7874D01*
X162217Y8274D01*
X161817D01*
X161417Y8674D01*
X161017Y8274D01*
X160617D01*
X161017Y7874D01*
X160617Y7474D01*
X161017D01*
X161417Y7074D01*
X153543D02*
X153943Y7474D01*
X154343D01*
X153943Y7874D01*
X154343Y8274D01*
X153943D01*
X153543Y8674D01*
X153143Y8274D01*
X152743D01*
X153143Y7874D01*
X152743Y7474D01*
X153143D01*
X153543Y7074D01*
X110236D02*
X110636Y7474D01*
X111036D01*
X110636Y7874D01*
X111036Y8274D01*
X110636D01*
X110236Y8674D01*
X109836Y8274D01*
X109436D01*
X109836Y7874D01*
X109436Y7474D01*
X109836D01*
X110236Y7074D01*
X102362D02*
X102762Y7474D01*
X103162D01*
X102762Y7874D01*
X103162Y8274D01*
X102762D01*
X102362Y8674D01*
X101962Y8274D01*
X101562D01*
X101962Y7874D01*
X101562Y7474D01*
X101962D01*
X102362Y7074D01*
X66929D02*
X67329Y7474D01*
X67729D01*
X67329Y7874D01*
X67729Y8274D01*
X67329D01*
X66929Y8674D01*
X66529Y8274D01*
X66129D01*
X66529Y7874D01*
X66129Y7474D01*
X66529D01*
X66929Y7074D01*
X59055D02*
X59455Y7474D01*
X59855D01*
X59455Y7874D01*
X59855Y8274D01*
X59455D01*
X59055Y8674D01*
X58655Y8274D01*
X58255D01*
X58655Y7874D01*
X58255Y7474D01*
X58655D01*
X59055Y7074D01*
X47244Y30696D02*
X47644Y31096D01*
X48044D01*
X47644Y31496D01*
X48044Y31896D01*
X47644D01*
X47244Y32296D01*
X46844Y31896D01*
X46444D01*
X46844Y31496D01*
X46444Y31096D01*
X46844D01*
X47244Y30696D01*
Y42507D02*
X47644Y42907D01*
X48044D01*
X47644Y43307D01*
X48044Y43707D01*
X47644D01*
X47244Y44107D01*
X46844Y43707D01*
X46444D01*
X46844Y43307D01*
X46444Y42907D01*
X46844D01*
X47244Y42507D01*
X39370D02*
X39770Y42907D01*
X40170D01*
X39770Y43307D01*
X40170Y43707D01*
X39770D01*
X39370Y44107D01*
X38970Y43707D01*
X38570D01*
X38970Y43307D01*
X38570Y42907D01*
X38970D01*
X39370Y42507D01*
X23622D02*
X24022Y42907D01*
X24422D01*
X24022Y43307D01*
X24422Y43707D01*
X24022D01*
X23622Y44107D01*
X23222Y43707D01*
X22822D01*
X23222Y43307D01*
X22822Y42907D01*
X23222D01*
X23622Y42507D01*
X7874D02*
X8274Y42907D01*
X8674D01*
X8274Y43307D01*
X8674Y43707D01*
X8274D01*
X7874Y44107D01*
X7474Y43707D01*
X7074D01*
X7474Y43307D01*
X7074Y42907D01*
X7474D01*
X7874Y42507D01*
Y50381D02*
X8274Y50781D01*
X8674D01*
X8274Y51181D01*
X8674Y51581D01*
X8274D01*
X7874Y51981D01*
X7474Y51581D01*
X7074D01*
X7474Y51181D01*
X7074Y50781D01*
X7474D01*
X7874Y50381D01*
Y74003D02*
X8274Y74403D01*
X8674D01*
X8274Y74803D01*
X8674Y75203D01*
X8274D01*
X7874Y75603D01*
X7474Y75203D01*
X7074D01*
X7474Y74803D01*
X7074Y74403D01*
X7474D01*
X7874Y74003D01*
Y93688D02*
X8274Y94088D01*
X8674D01*
X8274Y94488D01*
X8674Y94888D01*
X8274D01*
X7874Y95288D01*
X7474Y94888D01*
X7074D01*
X7474Y94488D01*
X7074Y94088D01*
X7474D01*
X7874Y93688D01*
Y113373D02*
X8274Y113773D01*
X8674D01*
X8274Y114173D01*
X8674Y114573D01*
X8274D01*
X7874Y114973D01*
X7474Y114573D01*
X7074D01*
X7474Y114173D01*
X7074Y113773D01*
X7474D01*
X7874Y113373D01*
Y133058D02*
X8274Y133458D01*
X8674D01*
X8274Y133858D01*
X8674Y134258D01*
X8274D01*
X7874Y134658D01*
X7474Y134258D01*
X7074D01*
X7474Y133858D01*
X7074Y133458D01*
X7474D01*
X7874Y133058D01*
Y152743D02*
X8274Y153143D01*
X8674D01*
X8274Y153543D01*
X8674Y153943D01*
X8274D01*
X7874Y154343D01*
X7474Y153943D01*
X7074D01*
X7474Y153543D01*
X7074Y153143D01*
X7474D01*
X7874Y152743D01*
X116142Y179318D02*
X116542Y179718D01*
X116942D01*
X116542Y180118D01*
X116942Y180518D01*
X116542D01*
X116142Y180918D01*
X115742Y180518D01*
X115342D01*
X115742Y180118D01*
X115342Y179718D01*
X115742D01*
X116142Y179318D01*
X112205D02*
X112605Y179718D01*
X113005D01*
X112605Y180118D01*
X113005Y180518D01*
X112605D01*
X112205Y180918D01*
X111805Y180518D01*
X111405D01*
X111805Y180118D01*
X111405Y179718D01*
X111805D01*
X112205Y179318D01*
X108268D02*
X108668Y179718D01*
X109068D01*
X108668Y180118D01*
X109068Y180518D01*
X108668D01*
X108268Y180918D01*
X107868Y180518D01*
X107468D01*
X107868Y180118D01*
X107468Y179718D01*
X107868D01*
X108268Y179318D01*
X85630Y158649D02*
X86030Y159049D01*
X86430D01*
X86030Y159449D01*
X86430Y159849D01*
X86030D01*
X85630Y160249D01*
X85230Y159849D01*
X84830D01*
X85230Y159449D01*
X84830Y159049D01*
X85230D01*
X85630Y158649D01*
X81693D02*
X82093Y159049D01*
X82493D01*
X82093Y159449D01*
X82493Y159849D01*
X82093D01*
X81693Y160249D01*
X81293Y159849D01*
X80893D01*
X81293Y159449D01*
X80893Y159049D01*
X81293D01*
X81693Y158649D01*
X133858Y137979D02*
X134258Y138380D01*
X134658D01*
X134258Y138779D01*
X134658Y139180D01*
X134258D01*
X133858Y139579D01*
X133458Y139180D01*
X133058D01*
X133458Y138779D01*
X133058Y138380D01*
X133458D01*
X133858Y137979D01*
X120079D02*
X120479Y138380D01*
X120879D01*
X120479Y138779D01*
X120879Y139180D01*
X120479D01*
X120079Y139579D01*
X119679Y139180D01*
X119279D01*
X119679Y138779D01*
X119279Y138380D01*
X119679D01*
X120079Y137979D01*
X105315D02*
X105715Y138380D01*
X106115D01*
X105715Y138779D01*
X106115Y139180D01*
X105715D01*
X105315Y139579D01*
X104915Y139180D01*
X104515D01*
X104915Y138779D01*
X104515Y138380D01*
X104915D01*
X105315Y137979D01*
X98425D02*
X98825Y138380D01*
X99225D01*
X98825Y138779D01*
X99225Y139180D01*
X98825D01*
X98425Y139579D01*
X98025Y139180D01*
X97625D01*
X98025Y138779D01*
X97625Y138380D01*
X98025D01*
X98425Y137979D01*
X109252Y155696D02*
X109652Y156096D01*
X110052D01*
X109652Y156496D01*
X110052Y156896D01*
X109652D01*
X109252Y157296D01*
X108852Y156896D01*
X108452D01*
X108852Y156496D01*
X108452Y156096D01*
X108852D01*
X109252Y155696D01*
X105315D02*
X105715Y156096D01*
X106115D01*
X105715Y156496D01*
X106115Y156896D01*
X105715D01*
X105315Y157296D01*
X104915Y156896D01*
X104515D01*
X104915Y156496D01*
X104515Y156096D01*
X104915D01*
X105315Y155696D01*
X305118Y22822D02*
X305518Y23222D01*
X305918D01*
X305518Y23622D01*
X305918Y24022D01*
X305518D01*
X305118Y24422D01*
X304718Y24022D01*
X304318D01*
X304718Y23622D01*
X304318Y23222D01*
X304718D01*
X305118Y22822D01*
X301181D02*
X301581Y23222D01*
X301981D01*
X301581Y23622D01*
X301981Y24022D01*
X301581D01*
X301181Y24422D01*
X300781Y24022D01*
X300381D01*
X300781Y23622D01*
X300381Y23222D01*
X300781D01*
X301181Y22822D01*
X297244D02*
X297644Y23222D01*
X298044D01*
X297644Y23622D01*
X298044Y24022D01*
X297644D01*
X297244Y24422D01*
X296844Y24022D01*
X296444D01*
X296844Y23622D01*
X296444Y23222D01*
X296844D01*
X297244Y22822D01*
X188976Y24791D02*
X189376Y25190D01*
X189776D01*
X189376Y25591D01*
X189776Y25991D01*
X189376D01*
X188976Y26391D01*
X188576Y25991D01*
X188176D01*
X188576Y25591D01*
X188176Y25190D01*
X188576D01*
X188976Y24791D01*
Y12979D02*
X189376Y13379D01*
X189776D01*
X189376Y13780D01*
X189776Y14179D01*
X189376D01*
X188976Y14580D01*
X188576Y14179D01*
X188176D01*
X188576Y13780D01*
X188176Y13379D01*
X188576D01*
X188976Y12979D01*
X316929Y54318D02*
X317329Y54718D01*
X317729D01*
X317329Y55118D01*
X317729Y55518D01*
X317329D01*
X316929Y55918D01*
X316529Y55518D01*
X316129D01*
X316529Y55118D01*
X316129Y54718D01*
X316529D01*
X316929Y54318D01*
X320866D02*
X321266Y54718D01*
X321666D01*
X321266Y55118D01*
X321666Y55518D01*
X321266D01*
X320866Y55918D01*
X320466Y55518D01*
X320066D01*
X320466Y55118D01*
X320066Y54718D01*
X320466D01*
X320866Y54318D01*
X338583D02*
X338983Y54718D01*
X339383D01*
X338983Y55118D01*
X339383Y55518D01*
X338983D01*
X338583Y55918D01*
X338183Y55518D01*
X337783D01*
X338183Y55118D01*
X337783Y54718D01*
X338183D01*
X338583Y54318D01*
X334646D02*
X335046Y54718D01*
X335446D01*
X335046Y55118D01*
X335446Y55518D01*
X335046D01*
X334646Y55918D01*
X334246Y55518D01*
X333846D01*
X334246Y55118D01*
X333846Y54718D01*
X334246D01*
X334646Y54318D01*
X342520Y42507D02*
X342920Y42907D01*
X343320D01*
X342920Y43307D01*
X343320Y43707D01*
X342920D01*
X342520Y44107D01*
X342120Y43707D01*
X341720D01*
X342120Y43307D01*
X341720Y42907D01*
X342120D01*
X342520Y42507D01*
Y58255D02*
X342920Y58655D01*
X343320D01*
X342920Y59055D01*
X343320Y59455D01*
X342920D01*
X342520Y59855D01*
X342120Y59455D01*
X341720D01*
X342120Y59055D01*
X341720Y58655D01*
X342120D01*
X342520Y58255D01*
Y70066D02*
X342920Y70466D01*
X343320D01*
X342920Y70866D01*
X343320Y71266D01*
X342920D01*
X342520Y71666D01*
X342120Y71266D01*
X341720D01*
X342120Y70866D01*
X341720Y70466D01*
X342120D01*
X342520Y70066D01*
Y81877D02*
X342920Y82277D01*
X343320D01*
X342920Y82677D01*
X343320Y83077D01*
X342920D01*
X342520Y83477D01*
X342120Y83077D01*
X341720D01*
X342120Y82677D01*
X341720Y82277D01*
X342120D01*
X342520Y81877D01*
Y93688D02*
X342920Y94088D01*
X343320D01*
X342920Y94488D01*
X343320Y94888D01*
X342920D01*
X342520Y95288D01*
X342120Y94888D01*
X341720D01*
X342120Y94488D01*
X341720Y94088D01*
X342120D01*
X342520Y93688D01*
Y105499D02*
X342920Y105899D01*
X343320D01*
X342920Y106299D01*
X343320Y106699D01*
X342920D01*
X342520Y107099D01*
X342120Y106699D01*
X341720D01*
X342120Y106299D01*
X341720Y105899D01*
X342120D01*
X342520Y105499D01*
Y117310D02*
X342920Y117710D01*
X343320D01*
X342920Y118110D01*
X343320Y118510D01*
X342920D01*
X342520Y118910D01*
X342120Y118510D01*
X341720D01*
X342120Y118110D01*
X341720Y117710D01*
X342120D01*
X342520Y117310D01*
Y129121D02*
X342920Y129521D01*
X343320D01*
X342920Y129921D01*
X343320Y130321D01*
X342920D01*
X342520Y130721D01*
X342120Y130321D01*
X341720D01*
X342120Y129921D01*
X341720Y129521D01*
X342120D01*
X342520Y129121D01*
Y140932D02*
X342920Y141332D01*
X343320D01*
X342920Y141732D01*
X343320Y142132D01*
X342920D01*
X342520Y142532D01*
X342120Y142132D01*
X341720D01*
X342120Y141732D01*
X341720Y141332D01*
X342120D01*
X342520Y140932D01*
Y152743D02*
X342920Y153143D01*
X343320D01*
X342920Y153543D01*
X343320Y153943D01*
X342920D01*
X342520Y154343D01*
X342120Y153943D01*
X341720D01*
X342120Y153543D01*
X341720Y153143D01*
X342120D01*
X342520Y152743D01*
X67913Y69574D02*
X68313Y69974D01*
X68713D01*
X68313Y70374D01*
X68713Y70774D01*
X68313D01*
X67913Y71174D01*
X67513Y70774D01*
X67113D01*
X67513Y70374D01*
X67113Y69974D01*
X67513D01*
X67913Y69574D01*
Y66129D02*
X68313Y66529D01*
X68713D01*
X68313Y66929D01*
X68713Y67329D01*
X68313D01*
X67913Y67729D01*
X67513Y67329D01*
X67113D01*
X67513Y66929D01*
X67113Y66529D01*
X67513D01*
X67913Y66129D01*
Y63176D02*
X68313Y63576D01*
X68713D01*
X68313Y63976D01*
X68713Y64376D01*
X68313D01*
X67913Y64776D01*
X67513Y64376D01*
X67113D01*
X67513Y63976D01*
X67113Y63576D01*
X67513D01*
X67913Y63176D01*
X56102D02*
X56502Y63576D01*
X56902D01*
X56502Y63976D01*
X56902Y64376D01*
X56502D01*
X56102Y64776D01*
X55702Y64376D01*
X55302D01*
X55702Y63976D01*
X55302Y63576D01*
X55702D01*
X56102Y63176D01*
Y66621D02*
X56502Y67021D01*
X56902D01*
X56502Y67421D01*
X56902Y67821D01*
X56502D01*
X56102Y68221D01*
X55702Y67821D01*
X55302D01*
X55702Y67421D01*
X55302Y67021D01*
X55702D01*
X56102Y66621D01*
Y70066D02*
X56502Y70466D01*
X56902D01*
X56502Y70866D01*
X56902Y71266D01*
X56502D01*
X56102Y71666D01*
X55702Y71266D01*
X55302D01*
X55702Y70866D01*
X55302Y70466D01*
X55702D01*
X56102Y70066D01*
X238189Y84338D02*
X238589Y84738D01*
X238989D01*
X238589Y85138D01*
X238989Y85538D01*
X238589D01*
X238189Y85938D01*
X237789Y85538D01*
X237389D01*
X237789Y85138D01*
X237389Y84738D01*
X237789D01*
X238189Y84338D01*
X236221Y86306D02*
X236620Y86706D01*
X237020D01*
X236620Y87106D01*
X237020Y87506D01*
X236620D01*
X236221Y87906D01*
X235821Y87506D01*
X235420D01*
X235821Y87106D01*
X235420Y86706D01*
X235821D01*
X236221Y86306D01*
X210630Y105991D02*
X211030Y106391D01*
X211430D01*
X211030Y106791D01*
X211430Y107191D01*
X211030D01*
X210630Y107591D01*
X210230Y107191D01*
X209830D01*
X210230Y106791D01*
X209830Y106391D01*
X210230D01*
X210630Y105991D01*
X221949D02*
X222349Y106391D01*
X222749D01*
X222349Y106791D01*
X222749Y107191D01*
X222349D01*
X221949Y107591D01*
X221549Y107191D01*
X221149D01*
X221549Y106791D01*
X221149Y106391D01*
X221549D01*
X221949Y105991D01*
X215551Y109928D02*
X215951Y110328D01*
X216351D01*
X215951Y110728D01*
X216351Y111128D01*
X215951D01*
X215551Y111528D01*
X215151Y111128D01*
X214751D01*
X215151Y110728D01*
X214751Y110328D01*
X215151D01*
X215551Y109928D01*
Y102054D02*
X215951Y102454D01*
X216351D01*
X215951Y102854D01*
X216351Y103254D01*
X215951D01*
X215551Y103654D01*
X215151Y103254D01*
X214751D01*
X215151Y102854D01*
X214751Y102454D01*
X215151D01*
X215551Y102054D01*
X183071Y107468D02*
X183471Y107868D01*
X183871D01*
X183471Y108268D01*
X183871Y108668D01*
X183471D01*
X183071Y109068D01*
X182671Y108668D01*
X182271D01*
X182671Y108268D01*
X182271Y107868D01*
X182671D01*
X183071Y107468D01*
X181102Y109928D02*
X181502Y110328D01*
X181902D01*
X181502Y110728D01*
X181902Y111128D01*
X181502D01*
X181102Y111528D01*
X180702Y111128D01*
X180302D01*
X180702Y110728D01*
X180302Y110328D01*
X180702D01*
X181102Y109928D01*
X172736Y118295D02*
X173136Y118694D01*
X173536D01*
X173136Y119095D01*
X173536Y119494D01*
X173136D01*
X172736Y119895D01*
X172336Y119494D01*
X171936D01*
X172336Y119095D01*
X171936Y118694D01*
X172336D01*
X172736Y118295D01*
X170276Y121247D02*
X170676Y121647D01*
X171076D01*
X170676Y122047D01*
X171076Y122447D01*
X170676D01*
X170276Y122847D01*
X169876Y122447D01*
X169476D01*
X169876Y122047D01*
X169476Y121647D01*
X169876D01*
X170276Y121247D01*
X167815Y124692D02*
X168215Y125092D01*
X168615D01*
X168215Y125492D01*
X168615Y125892D01*
X168215D01*
X167815Y126292D01*
X167415Y125892D01*
X167015D01*
X167415Y125492D01*
X167015Y125092D01*
X167415D01*
X167815Y124692D01*
X165354Y128629D02*
X165754Y129029D01*
X166154D01*
X165754Y129429D01*
X166154Y129829D01*
X165754D01*
X165354Y130229D01*
X164954Y129829D01*
X164554D01*
X164954Y129429D01*
X164554Y129029D01*
X164954D01*
X165354Y128629D01*
X168307Y131090D02*
X168707Y131490D01*
X169107D01*
X168707Y131890D01*
X169107Y132290D01*
X168707D01*
X168307Y132690D01*
X167907Y132290D01*
X167507D01*
X167907Y131890D01*
X167507Y131490D01*
X167907D01*
X168307Y131090D01*
X170768Y133550D02*
X171168Y133950D01*
X171568D01*
X171168Y134350D01*
X171568Y134750D01*
X171168D01*
X170768Y135150D01*
X170368Y134750D01*
X169968D01*
X170368Y134350D01*
X169968Y133950D01*
X170368D01*
X170768Y133550D01*
X173721Y136011D02*
X174120Y136411D01*
X174521D01*
X174120Y136811D01*
X174521Y137211D01*
X174120D01*
X173721Y137611D01*
X173320Y137211D01*
X172921D01*
X173320Y136811D01*
X172921Y136411D01*
X173320D01*
X173721Y136011D01*
X196358Y135027D02*
X196758Y135427D01*
X197158D01*
X196758Y135827D01*
X197158Y136227D01*
X196758D01*
X196358Y136627D01*
X195958Y136227D01*
X195558D01*
X195958Y135827D01*
X195558Y135427D01*
X195958D01*
X196358Y135027D01*
X197835Y136995D02*
X198235Y137395D01*
X198635D01*
X198235Y137795D01*
X198635Y138195D01*
X198235D01*
X197835Y138595D01*
X197435Y138195D01*
X197035D01*
X197435Y137795D01*
X197035Y137395D01*
X197435D01*
X197835Y136995D01*
X217028Y133058D02*
X217428Y133458D01*
X217828D01*
X217428Y133858D01*
X217828Y134258D01*
X217428D01*
X217028Y134658D01*
X216628Y134258D01*
X216228D01*
X216628Y133858D01*
X216228Y133458D01*
X216628D01*
X217028Y133058D01*
Y136011D02*
X217428Y136411D01*
X217828D01*
X217428Y136811D01*
X217828Y137211D01*
X217428D01*
X217028Y137611D01*
X216628Y137211D01*
X216228D01*
X216628Y136811D01*
X216228Y136411D01*
X216628D01*
X217028Y136011D01*
X278051Y85322D02*
X278451Y85722D01*
X278851D01*
X278451Y86122D01*
X278851Y86522D01*
X278451D01*
X278051Y86922D01*
X277651Y86522D01*
X277251D01*
X277651Y86122D01*
X277251Y85722D01*
X277651D01*
X278051Y85322D01*
Y90243D02*
X278451Y90643D01*
X278851D01*
X278451Y91043D01*
X278851Y91443D01*
X278451D01*
X278051Y91843D01*
X277651Y91443D01*
X277251D01*
X277651Y91043D01*
X277251Y90643D01*
X277651D01*
X278051Y90243D01*
Y95165D02*
X278451Y95565D01*
X278851D01*
X278451Y95965D01*
X278851Y96365D01*
X278451D01*
X278051Y96765D01*
X277651Y96365D01*
X277251D01*
X277651Y95965D01*
X277251Y95565D01*
X277651D01*
X278051Y95165D01*
X289862Y84830D02*
X290262Y85230D01*
X290662D01*
X290262Y85630D01*
X290662Y86030D01*
X290262D01*
X289862Y86430D01*
X289462Y86030D01*
X289062D01*
X289462Y85630D01*
X289062Y85230D01*
X289462D01*
X289862Y84830D01*
Y90243D02*
X290262Y90643D01*
X290662D01*
X290262Y91043D01*
X290662Y91443D01*
X290262D01*
X289862Y91843D01*
X289462Y91443D01*
X289062D01*
X289462Y91043D01*
X289062Y90643D01*
X289462D01*
X289862Y90243D01*
Y94672D02*
X290262Y95072D01*
X290662D01*
X290262Y95472D01*
X290662Y95872D01*
X290262D01*
X289862Y96272D01*
X289462Y95872D01*
X289062D01*
X289462Y95472D01*
X289062Y95072D01*
X289462D01*
X289862Y94672D01*
X152657Y42861D02*
X153058Y43261D01*
X153457D01*
X153058Y43661D01*
X153457Y44061D01*
X153058D01*
X152657Y44461D01*
X152258Y44061D01*
X151857D01*
X152258Y43661D01*
X151857Y43261D01*
X152258D01*
X152657Y42861D01*
X127953Y67606D02*
X128353Y68006D01*
X128753D01*
X128353Y68405D01*
X128753Y68805D01*
X128353D01*
X127953Y69205D01*
X127553Y68805D01*
X127153D01*
X127553Y68405D01*
X127153Y68006D01*
X127553D01*
X127953Y67606D01*
X158957Y73019D02*
X159357Y73419D01*
X159757D01*
X159357Y73819D01*
X159757Y74219D01*
X159357D01*
X158957Y74619D01*
X158557Y74219D01*
X158157D01*
X158557Y73819D01*
X158157Y73419D01*
X158557D01*
X158957Y73019D01*
X148622Y62684D02*
X149022Y63084D01*
X149422D01*
X149022Y63484D01*
X149422Y63884D01*
X149022D01*
X148622Y64284D01*
X148222Y63884D01*
X147822D01*
X148222Y63484D01*
X147822Y63084D01*
X148222D01*
X148622Y62684D01*
X273583Y65359D02*
X273983Y65759D01*
X274383D01*
X273983Y66159D01*
X274383Y66559D01*
X273983D01*
X273583Y66959D01*
X273183Y66559D01*
X272783D01*
X273183Y66159D01*
X272783Y65759D01*
X273183D01*
X273583Y65359D01*
X259350Y56287D02*
X259750Y56687D01*
X260150D01*
X259750Y57087D01*
X260150Y57487D01*
X259750D01*
X259350Y57887D01*
X258950Y57487D01*
X258550D01*
X258950Y57087D01*
X258550Y56687D01*
X258950D01*
X259350Y56287D01*
X254921Y51365D02*
X255321Y51765D01*
X255721D01*
X255321Y52165D01*
X255721Y52565D01*
X255321D01*
X254921Y52965D01*
X254521Y52565D01*
X254121D01*
X254521Y52165D01*
X254121Y51765D01*
X254521D01*
X254921Y51365D01*
X253937Y75972D02*
X254337Y76372D01*
X254737D01*
X254337Y76772D01*
X254737Y77172D01*
X254337D01*
X253937Y77572D01*
X253537Y77172D01*
X253137D01*
X253537Y76772D01*
X253137Y76372D01*
X253537D01*
X253937Y75972D01*
X236221Y22822D02*
X236620Y23222D01*
X237020D01*
X236620Y23622D01*
X237020Y24022D01*
X236620D01*
X236221Y24422D01*
X235821Y24022D01*
X235420D01*
X235821Y23622D01*
X235420Y23222D01*
X235821D01*
X236221Y22822D01*
X232776D02*
X233176Y23222D01*
X233576D01*
X233176Y23622D01*
X233576Y24022D01*
X233176D01*
X232776Y24422D01*
X232376Y24022D01*
X231976D01*
X232376Y23622D01*
X231976Y23222D01*
X232376D01*
X232776Y22822D01*
X250000Y26759D02*
X250400Y27159D01*
X250800D01*
X250400Y27559D01*
X250800Y27959D01*
X250400D01*
X250000Y28359D01*
X249600Y27959D01*
X249200D01*
X249600Y27559D01*
X249200Y27159D01*
X249600D01*
X250000Y26759D01*
X229823Y135027D02*
X230223Y135427D01*
X230623D01*
X230223Y135827D01*
X230623Y136227D01*
X230223D01*
X229823Y136627D01*
X229423Y136227D01*
X229023D01*
X229423Y135827D01*
X229023Y135427D01*
X229423D01*
X229823Y135027D01*
X161909Y139948D02*
X162309Y140348D01*
X162709D01*
X162309Y140748D01*
X162709Y141148D01*
X162309D01*
X161909Y141548D01*
X161509Y141148D01*
X161109D01*
X161509Y140748D01*
X161109Y140348D01*
X161509D01*
X161909Y139948D01*
X197343Y67113D02*
X197742Y67513D01*
X198143D01*
X197742Y67913D01*
X198143Y68313D01*
X197742D01*
X197343Y68713D01*
X196942Y68313D01*
X196543D01*
X196942Y67913D01*
X196543Y67513D01*
X196942D01*
X197343Y67113D01*
X193898D02*
X194298Y67513D01*
X194698D01*
X194298Y67913D01*
X194698Y68313D01*
X194298D01*
X193898Y68713D01*
X193498Y68313D01*
X193098D01*
X193498Y67913D01*
X193098Y67513D01*
X193498D01*
X193898Y67113D01*
X226870Y49397D02*
X227270Y49797D01*
X227670D01*
X227270Y50197D01*
X227670Y50597D01*
X227270D01*
X226870Y50997D01*
X226470Y50597D01*
X226070D01*
X226470Y50197D01*
X226070Y49797D01*
X226470D01*
X226870Y49397D01*
X223917Y62684D02*
X224317Y63084D01*
X224717D01*
X224317Y63484D01*
X224717Y63884D01*
X224317D01*
X223917Y64284D01*
X223517Y63884D01*
X223117D01*
X223517Y63484D01*
X223117Y63084D01*
X223517D01*
X223917Y62684D01*
Y65145D02*
X224317Y65545D01*
X224717D01*
X224317Y65945D01*
X224717Y66345D01*
X224317D01*
X223917Y66745D01*
X223517Y66345D01*
X223117D01*
X223517Y65945D01*
X223117Y65545D01*
X223517D01*
X223917Y65145D01*
X172244Y88767D02*
X172644Y89167D01*
X173044D01*
X172644Y89567D01*
X173044Y89967D01*
X172644D01*
X172244Y90367D01*
X171844Y89967D01*
X171444D01*
X171844Y89567D01*
X171444Y89167D01*
X171844D01*
X172244Y88767D01*
X178642Y81385D02*
X179042Y81785D01*
X179442D01*
X179042Y82185D01*
X179442Y82585D01*
X179042D01*
X178642Y82985D01*
X178242Y82585D01*
X177842D01*
X178242Y82185D01*
X177842Y81785D01*
X178242D01*
X178642Y81385D01*
X234976Y138904D02*
X235376Y139304D01*
X235776D01*
X235376Y139704D01*
X235776Y140104D01*
X235376D01*
X234976Y140504D01*
X234576Y140104D01*
X234176D01*
X234576Y139704D01*
X234176Y139304D01*
X234576D01*
X234976Y138904D01*
X246555Y120263D02*
X246955Y120663D01*
X247355D01*
X246955Y121063D01*
X247355Y121463D01*
X246955D01*
X246555Y121863D01*
X246155Y121463D01*
X245755D01*
X246155Y121063D01*
X245755Y120663D01*
X246155D01*
X246555Y120263D01*
X174705Y70066D02*
X175105Y70466D01*
X175505D01*
X175105Y70866D01*
X175505Y71266D01*
X175105D01*
X174705Y71666D01*
X174305Y71266D01*
X173905D01*
X174305Y70866D01*
X173905Y70466D01*
X174305D01*
X174705Y70066D01*
X203740Y132074D02*
X204140Y132474D01*
X204540D01*
X204140Y132874D01*
X204540Y133274D01*
X204140D01*
X203740Y133674D01*
X203340Y133274D01*
X202940D01*
X203340Y132874D01*
X202940Y132474D01*
X203340D01*
X203740Y132074D01*
X206201Y76956D02*
X206601Y77356D01*
X207001D01*
X206601Y77756D01*
X207001Y78156D01*
X206601D01*
X206201Y78556D01*
X205801Y78156D01*
X205401D01*
X205801Y77756D01*
X205401Y77356D01*
X205801D01*
X206201Y76956D01*
X158772Y83336D02*
X159172Y83736D01*
X159572D01*
X159172Y84136D01*
X159572Y84536D01*
X159172D01*
X158772Y84936D01*
X158372Y84536D01*
X157972D01*
X158372Y84136D01*
X157972Y83736D01*
X158372D01*
X158772Y83336D01*
X117506Y13465D02*
X117906Y13865D01*
X118306D01*
X117906Y14265D01*
X118306Y14665D01*
X117906D01*
X117506Y15065D01*
X117106Y14665D01*
X116706D01*
X117106Y14265D01*
X116706Y13865D01*
X117106D01*
X117506Y13465D01*
X275098Y151759D02*
X275498Y152159D01*
X275898D01*
X275498Y152559D01*
X275898Y152959D01*
X275498D01*
X275098Y153359D01*
X274698Y152959D01*
X274298D01*
X274698Y152559D01*
X274298Y152159D01*
X274698D01*
X275098Y151759D01*
Y154220D02*
X275498Y154620D01*
X275898D01*
X275498Y155020D01*
X275898Y155420D01*
X275498D01*
X275098Y155820D01*
X274698Y155420D01*
X274298D01*
X274698Y155020D01*
X274298Y154620D01*
X274698D01*
X275098Y154220D01*
X125000Y37586D02*
X125400Y37986D01*
X125800D01*
X125400Y38386D01*
X125800Y38786D01*
X125400D01*
X125000Y39186D01*
X124600Y38786D01*
X124200D01*
X124600Y38386D01*
X124200Y37986D01*
X124600D01*
X125000Y37586D01*
X236726Y41847D02*
X237126Y42247D01*
X237526D01*
X237126Y42647D01*
X237526Y43047D01*
X237126D01*
X236726Y43447D01*
X236326Y43047D01*
X235926D01*
X236326Y42647D01*
X235926Y42247D01*
X236326D01*
X236726Y41847D01*
X238189Y49397D02*
X238589Y49797D01*
X238989D01*
X238589Y50197D01*
X238989Y50597D01*
X238589D01*
X238189Y50997D01*
X237789Y50597D01*
X237389D01*
X237789Y50197D01*
X237389Y49797D01*
X237789D01*
X238189Y49397D01*
X240158Y69082D02*
X240558Y69482D01*
X240957D01*
X240558Y69882D01*
X240957Y70282D01*
X240558D01*
X240158Y70682D01*
X239757Y70282D01*
X239357D01*
X239757Y69882D01*
X239357Y69482D01*
X239757D01*
X240158Y69082D01*
X215314Y52255D02*
X215714Y52655D01*
X216114D01*
X215714Y53055D01*
X216114Y53455D01*
X215714D01*
X215314Y53855D01*
X214914Y53455D01*
X214514D01*
X214914Y53055D01*
X214514Y52655D01*
X214914D01*
X215314Y52255D01*
X244094Y150775D02*
X244495Y151175D01*
X244895D01*
X244495Y151575D01*
X244895Y151975D01*
X244495D01*
X244094Y152375D01*
X243694Y151975D01*
X243295D01*
X243694Y151575D01*
X243295Y151175D01*
X243694D01*
X244094Y150775D01*
X112205Y137979D02*
X112605Y138380D01*
X113005D01*
X112605Y138779D01*
X113005Y139180D01*
X112605D01*
X112205Y139579D01*
X111805Y139180D01*
X111405D01*
X111805Y138779D01*
X111405Y138380D01*
X111805D01*
X112205Y137979D01*
X71850Y140932D02*
X72250Y141332D01*
X72650D01*
X72250Y141732D01*
X72650Y142132D01*
X72250D01*
X71850Y142532D01*
X71450Y142132D01*
X71050D01*
X71450Y141732D01*
X71050Y141332D01*
X71450D01*
X71850Y140932D01*
X173228Y68098D02*
X173628Y68498D01*
X174028D01*
X173628Y68898D01*
X174028Y69298D01*
X173628D01*
X173228Y69698D01*
X172828Y69298D01*
X172428D01*
X172828Y68898D01*
X172428Y68498D01*
X172828D01*
X173228Y68098D01*
X203567Y107187D02*
X203967Y107587D01*
X204367D01*
X203967Y107987D01*
X204367Y108387D01*
X203967D01*
X203567Y108787D01*
X203167Y108387D01*
X202767D01*
X203167Y107987D01*
X202767Y107587D01*
X203167D01*
X203567Y107187D01*
X207606Y51958D02*
X208006Y52358D01*
X208406D01*
X208006Y52758D01*
X208406Y53158D01*
X208006D01*
X207606Y53558D01*
X207206Y53158D01*
X206806D01*
X207206Y52758D01*
X206806Y52358D01*
X207206D01*
X207606Y51958D01*
X204313Y32131D02*
X204713Y32531D01*
X205113D01*
X204713Y32931D01*
X205113Y33331D01*
X204713D01*
X204313Y33731D01*
X203913Y33331D01*
X203513D01*
X203913Y32931D01*
X203513Y32531D01*
X203913D01*
X204313Y32131D01*
X189961Y32665D02*
X190361Y33065D01*
X190761D01*
X190361Y33465D01*
X190761Y33865D01*
X190361D01*
X189961Y34265D01*
X189561Y33865D01*
X189161D01*
X189561Y33465D01*
X189161Y33065D01*
X189561D01*
X189961Y32665D01*
Y34633D02*
X190361Y35033D01*
X190761D01*
X190361Y35433D01*
X190761Y35833D01*
X190361D01*
X189961Y36233D01*
X189561Y35833D01*
X189161D01*
X189561Y35433D01*
X189161Y35033D01*
X189561D01*
X189961Y34633D01*
X208661Y62192D02*
X209061Y62592D01*
X209461D01*
X209061Y62992D01*
X209461Y63392D01*
X209061D01*
X208661Y63792D01*
X208261Y63392D01*
X207861D01*
X208261Y62992D01*
X207861Y62592D01*
X208261D01*
X208661Y62192D01*
Y59239D02*
X209061Y59639D01*
X209461D01*
X209061Y60039D01*
X209461Y60439D01*
X209061D01*
X208661Y60839D01*
X208261Y60439D01*
X207861D01*
X208261Y60039D01*
X207861Y59639D01*
X208261D01*
X208661Y59239D01*
Y56287D02*
X209061Y56687D01*
X209461D01*
X209061Y57087D01*
X209461Y57487D01*
X209061D01*
X208661Y57887D01*
X208261Y57487D01*
X207861D01*
X208261Y57087D01*
X207861Y56687D01*
X208261D01*
X208661Y56287D01*
X240158Y72035D02*
X240558Y72435D01*
X240957D01*
X240558Y72835D01*
X240957Y73235D01*
X240558D01*
X240158Y73635D01*
X239757Y73235D01*
X239357D01*
X239757Y72835D01*
X239357Y72435D01*
X239757D01*
X240158Y72035D01*
X169291Y50381D02*
X169691Y50781D01*
X170091D01*
X169691Y51181D01*
X170091Y51581D01*
X169691D01*
X169291Y51981D01*
X168891Y51581D01*
X168491D01*
X168891Y51181D01*
X168491Y50781D01*
X168891D01*
X169291Y50381D01*
X166339D02*
X166739Y50781D01*
X167139D01*
X166739Y51181D01*
X167139Y51581D01*
X166739D01*
X166339Y51981D01*
X165939Y51581D01*
X165539D01*
X165939Y51181D01*
X165539Y50781D01*
X165939D01*
X166339Y50381D01*
X163386D02*
X163786Y50781D01*
X164186D01*
X163786Y51181D01*
X164186Y51581D01*
X163786D01*
X163386Y51981D01*
X162986Y51581D01*
X162586D01*
X162986Y51181D01*
X162586Y50781D01*
X162986D01*
X163386Y50381D01*
X198327Y118787D02*
X198727Y119187D01*
X199127D01*
X198727Y119587D01*
X199127Y119987D01*
X198727D01*
X198327Y120387D01*
X197927Y119987D01*
X197527D01*
X197927Y119587D01*
X197527Y119187D01*
X197927D01*
X198327Y118787D01*
X236985Y91467D02*
X237385Y91867D01*
X237785D01*
X237385Y92267D01*
X237785Y92667D01*
X237385D01*
X236985Y93067D01*
X236585Y92667D01*
X236185D01*
X236585Y92267D01*
X236185Y91867D01*
X236585D01*
X236985Y91467D01*
X125000Y66129D02*
X125400Y66529D01*
X125800D01*
X125400Y66929D01*
X125800Y67329D01*
X125400D01*
X125000Y67729D01*
X124600Y67329D01*
X124200D01*
X124600Y66929D01*
X124200Y66529D01*
X124600D01*
X125000Y66129D01*
X232283Y75480D02*
X232683Y75880D01*
X233084D01*
X232683Y76279D01*
X233084Y76679D01*
X232683D01*
X232283Y77079D01*
X231884Y76679D01*
X231484D01*
X231884Y76279D01*
X231484Y75880D01*
X231884D01*
X232283Y75480D01*
X186103Y34845D02*
X186503Y35245D01*
X186903D01*
X186503Y35645D01*
X186903Y36045D01*
X186503D01*
X186103Y36445D01*
X185703Y36045D01*
X185303D01*
X185703Y35645D01*
X185303Y35245D01*
X185703D01*
X186103Y34845D01*
X187992Y86306D02*
X188392Y86706D01*
X188792D01*
X188392Y87106D01*
X188792Y87506D01*
X188392D01*
X187992Y87906D01*
X187592Y87506D01*
X187192D01*
X187592Y87106D01*
X187192Y86706D01*
X187592D01*
X187992Y86306D01*
X189961Y122724D02*
X190361Y123124D01*
X190761D01*
X190361Y123524D01*
X190761Y123924D01*
X190361D01*
X189961Y124324D01*
X189561Y123924D01*
X189161D01*
X189561Y123524D01*
X189161Y123124D01*
X189561D01*
X189961Y122724D01*
X114357Y164554D02*
X114758Y165354D01*
X114357Y166154D01*
X115157Y165754D01*
X115957Y166154D01*
X115558Y165354D01*
X115957Y164554D01*
X115157Y164954D01*
X114357Y164554D01*
Y172428D02*
X114758Y173228D01*
X114357Y174028D01*
X115157Y173628D01*
X115957Y174028D01*
X115558Y173228D01*
X115957Y172428D01*
X115157Y172828D01*
X114357Y172428D01*
X108452D02*
X108852Y173228D01*
X108452Y174028D01*
X109252Y173628D01*
X110052Y174028D01*
X109652Y173228D01*
X110052Y172428D01*
X109252Y172828D01*
X108452Y172428D01*
Y164554D02*
X108852Y165354D01*
X108452Y166154D01*
X109252Y165754D01*
X110052Y166154D01*
X109652Y165354D01*
X110052Y164554D01*
X109252Y164954D01*
X108452Y164554D01*
X83169Y4121D02*
X83569Y4521D01*
X83969D01*
X83569Y4921D01*
X83969Y5321D01*
X83569D01*
X83169Y5721D01*
X82769Y5321D01*
X82369D01*
X82769Y4921D01*
X82369Y4521D01*
X82769D01*
X83169Y4121D01*
Y6090D02*
X83569Y6490D01*
X83969D01*
X83569Y6890D01*
X83969Y7290D01*
X83569D01*
X83169Y7690D01*
X82769Y7290D01*
X82369D01*
X82769Y6890D01*
X82369Y6490D01*
X82769D01*
X83169Y6090D01*
X118125Y70175D02*
X118525Y70575D01*
X118925D01*
X118525Y70975D01*
X118925Y71375D01*
X118525D01*
X118125Y71775D01*
X117725Y71375D01*
X117325D01*
X117725Y70975D01*
X117325Y70575D01*
X117725D01*
X118125Y70175D01*
X225886Y151759D02*
X226286Y152159D01*
X226686D01*
X226286Y152559D01*
X226686Y152959D01*
X226286D01*
X225886Y153359D01*
X225486Y152959D01*
X225086D01*
X225486Y152559D01*
X225086Y152159D01*
X225486D01*
X225886Y151759D01*
X244094Y153235D02*
X244495Y153635D01*
X244895D01*
X244495Y154035D01*
X244895Y154435D01*
X244495D01*
X244094Y154835D01*
X243694Y154435D01*
X243295D01*
X243694Y154035D01*
X243295Y153635D01*
X243694D01*
X244094Y153235D01*
Y155696D02*
X244495Y156096D01*
X244895D01*
X244495Y156496D01*
X244895Y156896D01*
X244495D01*
X244094Y157296D01*
X243694Y156896D01*
X243295D01*
X243694Y156496D01*
X243295Y156096D01*
X243694D01*
X244094Y155696D01*
X242126Y158649D02*
X242526Y159049D01*
X242926D01*
X242526Y159449D01*
X242926Y159849D01*
X242526D01*
X242126Y160249D01*
X241726Y159849D01*
X241326D01*
X241726Y159449D01*
X241326Y159049D01*
X241726D01*
X242126Y158649D01*
Y161109D02*
X242526Y161509D01*
X242926D01*
X242526Y161909D01*
X242926Y162309D01*
X242526D01*
X242126Y162709D01*
X241726Y162309D01*
X241326D01*
X241726Y161909D01*
X241326Y161509D01*
X241726D01*
X242126Y161109D01*
Y163570D02*
X242526Y163970D01*
X242926D01*
X242526Y164370D01*
X242926Y164770D01*
X242526D01*
X242126Y165170D01*
X241726Y164770D01*
X241326D01*
X241726Y164370D01*
X241326Y163970D01*
X241726D01*
X242126Y163570D01*
X266732Y147330D02*
X267132Y147730D01*
X267532D01*
X267132Y148130D01*
X267532Y148530D01*
X267132D01*
X266732Y148930D01*
X266332Y148530D01*
X265932D01*
X266332Y148130D01*
X265932Y147730D01*
X266332D01*
X266732Y147330D01*
X264764D02*
X265164Y147730D01*
X265564D01*
X265164Y148130D01*
X265564Y148530D01*
X265164D01*
X264764Y148930D01*
X264364Y148530D01*
X263964D01*
X264364Y148130D01*
X263964Y147730D01*
X264364D01*
X264764Y147330D01*
X262795D02*
X263195Y147730D01*
X263595D01*
X263195Y148130D01*
X263595Y148530D01*
X263195D01*
X262795Y148930D01*
X262395Y148530D01*
X261995D01*
X262395Y148130D01*
X261995Y147730D01*
X262395D01*
X262795Y147330D01*
X235236Y163570D02*
X235636Y163970D01*
X236036D01*
X235636Y164370D01*
X236036Y164770D01*
X235636D01*
X235236Y165170D01*
X234836Y164770D01*
X234436D01*
X234836Y164370D01*
X234436Y163970D01*
X234836D01*
X235236Y163570D01*
Y165539D02*
X235636Y165939D01*
X236036D01*
X235636Y166339D01*
X236036Y166739D01*
X235636D01*
X235236Y167139D01*
X234836Y166739D01*
X234436D01*
X234836Y166339D01*
X234436Y165939D01*
X234836D01*
X235236Y165539D01*
Y167507D02*
X235636Y167907D01*
X236036D01*
X235636Y168307D01*
X236036Y168707D01*
X235636D01*
X235236Y169107D01*
X234836Y168707D01*
X234436D01*
X234836Y168307D01*
X234436Y167907D01*
X234836D01*
X235236Y167507D01*
X223425Y165539D02*
X223825Y165939D01*
X224225D01*
X223825Y166339D01*
X224225Y166739D01*
X223825D01*
X223425Y167139D01*
X223025Y166739D01*
X222625D01*
X223025Y166339D01*
X222625Y165939D01*
X223025D01*
X223425Y165539D01*
X220472D02*
X220872Y165939D01*
X221272D01*
X220872Y166339D01*
X221272Y166739D01*
X220872D01*
X220472Y167139D01*
X220072Y166739D01*
X219672D01*
X220072Y166339D01*
X219672Y165939D01*
X220072D01*
X220472Y165539D01*
X216535Y166523D02*
X216935Y166923D01*
X217335D01*
X216935Y167323D01*
X217335Y167723D01*
X216935D01*
X216535Y168123D01*
X216135Y167723D01*
X215735D01*
X216135Y167323D01*
X215735Y166923D01*
X216135D01*
X216535Y166523D01*
X213583D02*
X213983Y166923D01*
X214383D01*
X213983Y167323D01*
X214383Y167723D01*
X213983D01*
X213583Y168123D01*
X213183Y167723D01*
X212783D01*
X213183Y167323D01*
X212783Y166923D01*
X213183D01*
X213583Y166523D01*
X189961Y182271D02*
X190361Y182671D01*
X190761D01*
X190361Y183071D01*
X190761Y183471D01*
X190361D01*
X189961Y183871D01*
X189561Y183471D01*
X189161D01*
X189561Y183071D01*
X189161Y182671D01*
X189561D01*
X189961Y182271D01*
Y177350D02*
X190361Y177750D01*
X190761D01*
X190361Y178150D01*
X190761Y178550D01*
X190361D01*
X189961Y178950D01*
X189561Y178550D01*
X189161D01*
X189561Y178150D01*
X189161Y177750D01*
X189561D01*
X189961Y177350D01*
Y173413D02*
X190361Y173813D01*
X190761D01*
X190361Y174213D01*
X190761Y174613D01*
X190361D01*
X189961Y175013D01*
X189561Y174613D01*
X189161D01*
X189561Y174213D01*
X189161Y173813D01*
X189561D01*
X189961Y173413D01*
X203740D02*
X204140Y173813D01*
X204540D01*
X204140Y174213D01*
X204540Y174613D01*
X204140D01*
X203740Y175013D01*
X203340Y174613D01*
X202940D01*
X203340Y174213D01*
X202940Y173813D01*
X203340D01*
X203740Y173413D01*
Y177350D02*
X204140Y177750D01*
X204540D01*
X204140Y178150D01*
X204540Y178550D01*
X204140D01*
X203740Y178950D01*
X203340Y178550D01*
X202940D01*
X203340Y178150D01*
X202940Y177750D01*
X203340D01*
X203740Y177350D01*
Y182271D02*
X204140Y182671D01*
X204540D01*
X204140Y183071D01*
X204540Y183471D01*
X204140D01*
X203740Y183871D01*
X203340Y183471D01*
X202940D01*
X203340Y183071D01*
X202940Y182671D01*
X203340D01*
X203740Y182271D01*
X34449Y150775D02*
X34849Y151175D01*
X35249D01*
X34849Y151575D01*
X35249Y151975D01*
X34849D01*
X34449Y152375D01*
X34049Y151975D01*
X33649D01*
X34049Y151575D01*
X33649Y151175D01*
X34049D01*
X34449Y150775D01*
Y147822D02*
X34849Y148222D01*
X35249D01*
X34849Y148622D01*
X35249Y149022D01*
X34849D01*
X34449Y149422D01*
X34049Y149022D01*
X33649D01*
X34049Y148622D01*
X33649Y148222D01*
X34049D01*
X34449Y147822D01*
Y144869D02*
X34849Y145269D01*
X35249D01*
X34849Y145669D01*
X35249Y146069D01*
X34849D01*
X34449Y146469D01*
X34049Y146069D01*
X33649D01*
X34049Y145669D01*
X33649Y145269D01*
X34049D01*
X34449Y144869D01*
X24606D02*
X25006Y145269D01*
X25406D01*
X25006Y145669D01*
X25406Y146069D01*
X25006D01*
X24606Y146469D01*
X24206Y146069D01*
X23806D01*
X24206Y145669D01*
X23806Y145269D01*
X24206D01*
X24606Y144869D01*
Y147822D02*
X25006Y148222D01*
X25406D01*
X25006Y148622D01*
X25406Y149022D01*
X25006D01*
X24606Y149422D01*
X24206Y149022D01*
X23806D01*
X24206Y148622D01*
X23806Y148222D01*
X24206D01*
X24606Y147822D01*
Y150775D02*
X25006Y151175D01*
X25406D01*
X25006Y151575D01*
X25406Y151975D01*
X25006D01*
X24606Y152375D01*
X24206Y151975D01*
X23806D01*
X24206Y151575D01*
X23806Y151175D01*
X24206D01*
X24606Y150775D01*
X57087Y120263D02*
X57487Y120663D01*
X57887D01*
X57487Y121063D01*
X57887Y121463D01*
X57487D01*
X57087Y121863D01*
X56687Y121463D01*
X56287D01*
X56687Y121063D01*
X56287Y120663D01*
X56687D01*
X57087Y120263D01*
Y116326D02*
X57487Y116726D01*
X57887D01*
X57487Y117126D01*
X57887Y117526D01*
X57487D01*
X57087Y117926D01*
X56687Y117526D01*
X56287D01*
X56687Y117126D01*
X56287Y116726D01*
X56687D01*
X57087Y116326D01*
Y112389D02*
X57487Y112789D01*
X57887D01*
X57487Y113189D01*
X57887Y113589D01*
X57487D01*
X57087Y113989D01*
X56687Y113589D01*
X56287D01*
X56687Y113189D01*
X56287Y112789D01*
X56687D01*
X57087Y112389D01*
X66929D02*
X67329Y112789D01*
X67729D01*
X67329Y113189D01*
X67729Y113589D01*
X67329D01*
X66929Y113989D01*
X66529Y113589D01*
X66129D01*
X66529Y113189D01*
X66129Y112789D01*
X66529D01*
X66929Y112389D01*
Y116326D02*
X67329Y116726D01*
X67729D01*
X67329Y117126D01*
X67729Y117526D01*
X67329D01*
X66929Y117926D01*
X66529Y117526D01*
X66129D01*
X66529Y117126D01*
X66129Y116726D01*
X66529D01*
X66929Y116326D01*
Y120263D02*
X67329Y120663D01*
X67729D01*
X67329Y121063D01*
X67729Y121463D01*
X67329D01*
X66929Y121863D01*
X66529Y121463D01*
X66129D01*
X66529Y121063D01*
X66129Y120663D01*
X66529D01*
X66929Y120263D01*
X71850Y136995D02*
X72250Y137395D01*
X72650D01*
X72250Y137795D01*
X72650Y138195D01*
X72250D01*
X71850Y138595D01*
X71450Y138195D01*
X71050D01*
X71450Y137795D01*
X71050Y137395D01*
X71450D01*
X71850Y136995D01*
Y133058D02*
X72250Y133458D01*
X72650D01*
X72250Y133858D01*
X72650Y134258D01*
X72250D01*
X71850Y134658D01*
X71450Y134258D01*
X71050D01*
X71450Y133858D01*
X71050Y133458D01*
X71450D01*
X71850Y133058D01*
X62008D02*
X62408Y133458D01*
X62808D01*
X62408Y133858D01*
X62808Y134258D01*
X62408D01*
X62008Y134658D01*
X61608Y134258D01*
X61208D01*
X61608Y133858D01*
X61208Y133458D01*
X61608D01*
X62008Y133058D01*
Y136995D02*
X62408Y137395D01*
X62808D01*
X62408Y137795D01*
X62808Y138195D01*
X62408D01*
X62008Y138595D01*
X61608Y138195D01*
X61208D01*
X61608Y137795D01*
X61208Y137395D01*
X61608D01*
X62008Y136995D01*
Y140932D02*
X62408Y141332D01*
X62808D01*
X62408Y141732D01*
X62808Y142132D01*
X62408D01*
X62008Y142532D01*
X61608Y142132D01*
X61208D01*
X61608Y141732D01*
X61208Y141332D01*
X61608D01*
X62008Y140932D01*
X142717Y162586D02*
X143116Y162986D01*
X143517D01*
X143116Y163386D01*
X143517Y163786D01*
X143116D01*
X142717Y164186D01*
X142316Y163786D01*
X141917D01*
X142316Y163386D01*
X141917Y162986D01*
X142316D01*
X142717Y162586D01*
Y167507D02*
X143116Y167907D01*
X143517D01*
X143116Y168307D01*
X143517Y168707D01*
X143116D01*
X142717Y169107D01*
X142316Y168707D01*
X141917D01*
X142316Y168307D01*
X141917Y167907D01*
X142316D01*
X142717Y167507D01*
X137795D02*
X138195Y167907D01*
X138595D01*
X138195Y168307D01*
X138595Y168707D01*
X138195D01*
X137795Y169107D01*
X137395Y168707D01*
X136995D01*
X137395Y168307D01*
X136995Y167907D01*
X137395D01*
X137795Y167507D01*
X133858D02*
X134258Y167907D01*
X134658D01*
X134258Y168307D01*
X134658Y168707D01*
X134258D01*
X133858Y169107D01*
X133458Y168707D01*
X133058D01*
X133458Y168307D01*
X133058Y167907D01*
X133458D01*
X133858Y167507D01*
X127953Y168491D02*
X128353Y168891D01*
X128753D01*
X128353Y169291D01*
X128753Y169691D01*
X128353D01*
X127953Y170091D01*
X127553Y169691D01*
X127153D01*
X127553Y169291D01*
X127153Y168891D01*
X127553D01*
X127953Y168491D01*
Y171444D02*
X128353Y171844D01*
X128753D01*
X128353Y172244D01*
X128753Y172644D01*
X128353D01*
X127953Y173044D01*
X127553Y172644D01*
X127153D01*
X127553Y172244D01*
X127153Y171844D01*
X127553D01*
X127953Y171444D01*
D116*
X288202Y15256D02*
G03*
X288202Y15256I-800J0D01*
G01*
M02*
